<svg xmlns="http://www.w3.org/2000/svg" viewBox="0 0 147.53 42.73"><defs><style>.eb9654f6-3a22-4191-a7ce-ed317bfeb1b1{fill:#231f20;}</style></defs><g id="f89b940e-e52d-4aaf-9847-3df1857ee02a" data-name="Layer 2"><g id="bfc2082d-6bd0-4ecd-99f2-6762dbdf2e67" data-name="Layer 1"><g id="a7744cb2-26e3-43c7-a8c2-fba35dfde2d6" data-name="0YOPe6"><path class="eb9654f6-3a22-4191-a7ce-ed317bfeb1b1" d="M142.14,32.15a38,38,0,0,1-2.22-4.34,37.42,37.42,0,0,1-1-4.58c-3.52,2.1-6.77,1.8-9.13-.89a5.43,5.43,0,0,1-.18-7c1.58-2,4.38-3.32,8.22-1,.29-1.58.29-1.58-1.91-3.43,2.17-3.27,3.66-6.7,2.19-10.79a6.31,6.31,0,0,1,4.81,1.38c2.9,2,4.68,4.65,4.63,8.4-.08,7.65,0,15.29,0,22.94A10,10,0,0,1,138,42.68c-6.41.09-12.82,0-19.23,0a10.5,10.5,0,0,1-2.94-.47,4.71,4.71,0,0,1-3.2-4.94,4.9,4.9,0,0,1,3.62-4.68,14.06,14.06,0,0,1,3.3-.4c6.94,0,13.88,0,20.83,0Z"/><path class="eb9654f6-3a22-4191-a7ce-ed317bfeb1b1" d="M137.61,0a7.62,7.62,0,0,1-4.4,5c-1.68.7-3.39,1.33-5,2.1-3.61,1.71-6.36,4.22-7.28,8.29a12.14,12.14,0,0,0,.64,7.59c.18.42.38.83.6,1.32-2.15.13-4.2.13-6.22.4a12.23,12.23,0,0,0-10.74,9.73,1.09,1.09,0,0,1-.4.7,19.24,19.24,0,0,1-.33-2.35c0-7.53,0-15.06,0-22.59A10.26,10.26,0,0,1,112.2.22,5,5,0,0,1,113.41,0Z"/><path class="eb9654f6-3a22-4191-a7ce-ed317bfeb1b1" d="M24.56,18.37V9.54h8.57v9.05H39.5l.17-.21V10.74h2.92v7.92h3.58l.3-.33V4.53h2.81V21.22H0V9.54H8.25v8.77l.21.34.17,0c2.63.13,2.63.13,2.63-2.47,0-2,0-4.29,0-6.28.16-.1.32.09.48,0,.75.07,1.49-.1,2.48,0v8.44l.22.24h3.48V9.93c.92-.08,1.66.06,2.41,0,.16.07.32-.08.48,0,0,2.73.05,5.7.08,8.43l.25.27h3.19Zm5.7.29V12.14H27.62v6.52ZM2.85,12.09v6.55H5.21V12.09Z"/><path class="eb9654f6-3a22-4191-a7ce-ed317bfeb1b1" d="M70.9,18.62l3.54,0,.38-.29q.06-6.52.11-13v-2h2.82v18H64.67V24.6H61.86v-15h8.8v8.82ZM64.71,12.1v6.54h2.9V12.1Z"/><path class="eb9654f6-3a22-4191-a7ce-ed317bfeb1b1" d="M96.25,18.65v2.5H80.77V3.34h2.72V18.48a2.51,2.51,0,0,0,.64.22c3.51,0,3,.25,3-3,0-2,0-4,0-6.12h8.49v5.87H92.89V12.13H90.11v6.52Z"/><path class="eb9654f6-3a22-4191-a7ce-ed317bfeb1b1" d="M62.22,36.28h1.71c.75-.81-.41-2.22,1.23-2.77l.2,2.65,1.13.2c.59-2.12-.27-4.35.67-6.71.66,1.51.76,5.27.37,7.7-.49,0-1,.08-1.51.08H45.58c-1.87,0-2.45-.38-2.58-1.65a2.91,2.91,0,0,1,2.31-3.26,8.32,8.32,0,0,1,1.93,0c.6,0,1.2.15,2.06.26v3.43l1.78.11c.89-.81-.26-2.21.94-2.78,1.24.56-.51,2.85,1.84,2.74l.26-2.64c1.15-.2,1.17.51,1.21,1.25,0,.57-.28,1.37.91,1.4.39-1.91.15-4.39,3.2-4.2C61.2,32.25,61.77,33.11,62.22,36.28Zm-14,0c.23-1.18.27-2.23-.88-2.51a4.27,4.27,0,0,0-2.65.14c-.91.42-.73,1.43-.42,2.37Zm12.73,0c.11-1.21.43-2.38-.77-2.94a2.48,2.48,0,0,0-2,.08c-1.1.65-.71,1.78-.65,2.86Z"/><path class="eb9654f6-3a22-4191-a7ce-ed317bfeb1b1" d="M52.31,4.5H55V21.19H52.31Z"/><path class="eb9654f6-3a22-4191-a7ce-ed317bfeb1b1" d="M78.45,37.43V29.71c1.38,1,.79,2.2.88,3.14.11,1.1,0,2.21,0,3.42h2.22c.77-.7-.4-2.11,1.14-2.84l.3,2.93c2.47,0,5,0,7.47,0,.32,0,.86-.68.85-1a1.4,1.4,0,0,0-.91-1c-1.23-.13-2.47,0-3.7-.07-.55,0-1.1-.06-1.65-.09L85,33.7c.28-.17.56-.49.85-.5,1.64,0,3.29-.06,4.94,0a2.11,2.11,0,0,1,0,4.2C86.7,37.46,82.65,37.43,78.45,37.43Z"/><path class="eb9654f6-3a22-4191-a7ce-ed317bfeb1b1" d="M32,33.59l.22,2.64H34c.73-.73-.45-2.36,1.44-2.69l.22,2.65,1.09.11c.74-.85-.39-2.25,1.23-2.8v3.94c-1.4,0-2.74,0-4.07,0a3.79,3.79,0,0,0-2.77.82,3.67,3.67,0,0,1-3.67.37A2,2,0,0,1,26,36.44a2.21,2.21,0,0,1,1.52-2.14c.16-.06.41.08.94.2a11.47,11.47,0,0,0-1.06,1.07,1.31,1.31,0,0,0,.72,2.19,2.15,2.15,0,0,0,2.92-2.18c0-.68.13-1.36.21-2Z"/><path class="eb9654f6-3a22-4191-a7ce-ed317bfeb1b1" d="M7.32,30.08v6.17h2c.41-2.32.41-2.32,1.4-2.59v3.62a8.63,8.63,0,0,1-1.28.15,4.67,4.67,0,0,0-2.94.81,3.46,3.46,0,0,1-4.13,0,2,2,0,0,1-1-2.11,2.06,2.06,0,0,1,2.3-1.7L2.53,36.23C3,37.57,3.59,38,4.78,37.77s1.54-.67,1.55-2.1,0-3.06,0-4.59A3.66,3.66,0,0,1,6.8,30Z"/><path class="eb9654f6-3a22-4191-a7ce-ed317bfeb1b1" d="M18.5,36.32h1.61c.86-.75-.32-2.16,1.2-2.88v3.89c-3,0-6.06,0-9.14,0-.18,0-.34-.39-.8-.93,1.64,0,2.9,0,4.16,0,.68,0,1.5.19,1.69-.81a1.74,1.74,0,0,0-1.13-2.12,2.28,2.28,0,0,0-2.94.86c-.33.39-.72.73-1.27,1.28a3,3,0,0,1,2.78-3.45C17.08,31.9,18.06,32.93,18.5,36.32Z"/><path class="eb9654f6-3a22-4191-a7ce-ed317bfeb1b1" d="M16,23.32v2.6H12.79v-2.6Z"/><path class="eb9654f6-3a22-4191-a7ce-ed317bfeb1b1" d="M8.21,25.88V23.3h3.22v2.58Z"/><path class="eb9654f6-3a22-4191-a7ce-ed317bfeb1b1" d="M33.38,7.42H29.8V5.05h3.58Z"/><path class="eb9654f6-3a22-4191-a7ce-ed317bfeb1b1" d="M93.19,37.23a68.07,68.07,0,0,1,.16-7.42l.6-.07c.18.31.49.62.5.94,0,1.94,0,3.88,0,5.82C94.48,37.3,94.13,37.55,93.19,37.23Z"/><path class="eb9654f6-3a22-4191-a7ce-ed317bfeb1b1" d="M42.93,5.06V7.42c-3.25.1-3.25.45-3.26-2.36Z"/><path class="eb9654f6-3a22-4191-a7ce-ed317bfeb1b1" d="M24.39,5h3.8V7.42h-3.8Z"/><path class="eb9654f6-3a22-4191-a7ce-ed317bfeb1b1" d="M8,7.42H4.73V5H8Z"/><path class="eb9654f6-3a22-4191-a7ce-ed317bfeb1b1" d="M77.57,33.65a30.6,30.6,0,0,1,0,4c-.21,1.54-1.82,2.19-4,1.6.45-.31.69-.6,1-.65,2-.32,2.07-.39,2.08-2.42,0-.7,0-1.4,0-2.1a3.37,3.37,0,0,1,.25-.78Z"/><path class="eb9654f6-3a22-4191-a7ce-ed317bfeb1b1" d="M38.33,7.42h-3V5h3Z"/><path class="eb9654f6-3a22-4191-a7ce-ed317bfeb1b1" d="M20.64,7.42h-3V5h3Z"/><path class="eb9654f6-3a22-4191-a7ce-ed317bfeb1b1" d="M0,7.42V5.07H3V7.42Z"/><path class="eb9654f6-3a22-4191-a7ce-ed317bfeb1b1" d="M69.37,30.14V37.3h-.51c-.19-2.39-.08-4.77-.08-7.16Z"/><path class="eb9654f6-3a22-4191-a7ce-ed317bfeb1b1" d="M52,39.74c-.25-.35-.47-.53-.51-.74s.26-.47.35-.45.54.22.59.4S52.24,39.37,52,39.74Z"/><path class="eb9654f6-3a22-4191-a7ce-ed317bfeb1b1" d="M51,38.92c-.33.28-.53.58-.68.56s-.41-.29-.51-.5.25-.42.39-.42S50.64,38.73,51,38.92Z"/><path class="eb9654f6-3a22-4191-a7ce-ed317bfeb1b1" d="M70.9,18.62l-.24-.25Z"/><path class="eb9654f6-3a22-4191-a7ce-ed317bfeb1b1" d="M46.47,18.33l-.3.33Z"/><path class="eb9654f6-3a22-4191-a7ce-ed317bfeb1b1" d="M39.67,18.38l-.17.21A.28.28,0,0,1,39.67,18.38Z"/><path class="eb9654f6-3a22-4191-a7ce-ed317bfeb1b1" d="M24.56,18.37l-.24.25Z"/><path class="eb9654f6-3a22-4191-a7ce-ed317bfeb1b1" d="M21.13,18.63l-.25-.27Z"/><path class="eb9654f6-3a22-4191-a7ce-ed317bfeb1b1" d="M74.82,18.36l-.38.29Z"/><path class="eb9654f6-3a22-4191-a7ce-ed317bfeb1b1" d="M8.46,18.65l-.21-.34Z"/><path class="eb9654f6-3a22-4191-a7ce-ed317bfeb1b1" d="M20.8,9.93c-.16-.08-.32.07-.48,0C20.48,10,20.64,9.85,20.8,9.93Z"/><path class="eb9654f6-3a22-4191-a7ce-ed317bfeb1b1" d="M11.73,9.93c-.16.09-.32-.1-.48,0C11.41,9.83,11.57,10,11.73,9.93Z"/><path class="eb9654f6-3a22-4191-a7ce-ed317bfeb1b1" d="M14.43,18.61l-.22-.24A.35.35,0,0,1,14.43,18.61Z"/></g></g></g></svg>