<svg xmlns="http://www.w3.org/2000/svg" viewBox="0 0 141.97 35"><defs><style>.fc2ebac2-0ac7-41d0-8f83-3fcacaf06e98{fill:#231f20;}</style></defs><g id="b651b9c3-417c-421a-b3df-fe88d58d58c0" data-name="Layer 2"><g id="be6d3b8c-6044-4150-a556-f4f10ede299e" data-name="Layer 1"><path class="fc2ebac2-0ac7-41d0-8f83-3fcacaf06e98" d="M109.77,12.83c0-.92-.38-1.49-1.45-1.48-3,0-6,0-9,0-1.11,0-1.52.53-1.5,1.58,0,1.65,0,3.31,0,5,0,1,.38,1.35,1.35,1.32,1.65-.05,3.31,0,5,0,1,0,1.37.39,1.27,1.34,0,.44-.06.88-.08,1.3a1.78,1.78,0,0,1-.48.21c-3.52,0-7,.11-10.54.06-.32,0-.87-.76-.89-1.18-.09-2,0-4,0-6,0-3.94.74-3.48-3.63-3.55-1.22,0-1.56.49-1.54,1.62.06,2.66,0,5.33,0,8,0,.94-.36,1.25-1.25,1.2-1.35-.08-2.71-.16-4.06-.13-1,0-1.48-.28-1.43-1.36.06-1.35,0-2.71,0-4.07,0-3.55-1.55-5.11-5.12-5.13-3.22,0-6.43,0-9.65,0-1.33,0-2.78.27-2.46-1.81-2.62-.21-2.63-.21-2.62,2.16,0,2.11,0,4.22,0,6.33,0,4.27,0,4.24-4.32,4-1.05-.06-1.36-.46-1.35-1.48,0-4.51,0-9,0-13.55,0-4.23.26-3.6-3.78-3.65-2.23,0-2.3.08-2.3,2.27q0,9.12,0,18.23c0,.49,0,1,.08,1.52h59.82C109.78,21.15,109.79,17,109.77,12.83Zm-7,4.21c-.69,0-1.46.08-1.45-1s0-2,1.22-2.25a15,15,0,0,1,2.61,0C105.56,16.46,105.07,17.1,102.79,17ZM75.84,21.36c-.4.68-2.36.56-3.62.6-2.54.08-5.09,0-7.83,0,0-2.42,0-4.66,0-6.9a1.29,1.29,0,0,1,.89-.88c2.55,0,5.11,0,7.66.15a3.08,3.08,0,0,1,3,2.91C76.11,18.64,76.46,20.33,75.84,21.36Z"/><path class="fc2ebac2-0ac7-41d0-8f83-3fcacaf06e98" d="M25.57,25.63c1,0,1.33-.28,1.32-1.28-.05-3.11,0-6.23,0-9.34,0-4.27.37-3.55-3.74-3.65-1.08,0-1.57.36-1.53,1.47.06,2.1.08,4.21.11,6.32,0,.92,0,1.84,0,2.66a4.5,4.5,0,0,1-.6.16C20.05,22,19,22,18,22c-2.59,0-2.36.36-2.37-2.3s0-5.4,0-8.07c-3.68,0-7.09-.14-10.48,0C2.22,11.84.82,13.23.49,16.1.18,18.79.19,21.5,0,24.2c-.08,1.14.38,1.47,1.48,1.46Q13.53,25.6,25.57,25.63ZM9.8,14.56c0,2.23,0,4.47,0,6.71,0,.25-.54.69-.85.71-1.29.08-2.59,0-3.84,0C3.66,17.31,5.5,14.39,9.8,14.56Z"/><path class="fc2ebac2-0ac7-41d0-8f83-3fcacaf06e98" d="M129.61,25.56c.31,0,.87-.74.87-1.13.06-6.53,0-13,.08-19.57,0-1-.31-1.49-1.37-1.44a27.76,27.76,0,0,1-3.16,0c-1.31-.08-1.77.47-1.74,1.77.06,3.31,0,6.62,0,9.93,0,.34-.08.68-.13,1.13-1.18-2.08-2.12-4.1-3.38-5.88-1.88-2.67-4.55-2.67-6.85-.1a18.72,18.72,0,0,1,8,11.86c-1.79,0-3.37,0-5,0-2.6,0-3,.56-2.74,3.29a1.12,1.12,0,0,0,.4.14C119.68,25.6,124.65,25.62,129.61,25.56Z"/><path class="fc2ebac2-0ac7-41d0-8f83-3fcacaf06e98" d="M135.62,25.54c1.65.12,3.3.05,5.2.05V23.76q0-7.92,0-15.82c0-4.8,0-4.78-4.8-4.52-1,.05-1.42.51-1.42,1.48,0,6.52,0,13.05.06,19.57A1.48,1.48,0,0,0,135.62,25.54Z"/><path class="fc2ebac2-0ac7-41d0-8f83-3fcacaf06e98" d="M44.35,25.71c.86,0,1.08-.31,1.07-1,0-2.75,0-5.52-.14-8.27-.1-1.79-.65-3.56-2.52-4.3-3.12-1.22-6.37-.56-9.6-.71.18,3,.7,3.53,3.34,3.52.5,0,1,0,1.5,0A2.18,2.18,0,0,1,40.46,17a48.09,48.09,0,0,1,0,5c-2.08,0-4,0-6,0s-2.87.94-3,2.49c-.08.84.09,1.27,1.12,1.25Q38.49,25.65,44.35,25.71Z"/><path class="fc2ebac2-0ac7-41d0-8f83-3fcacaf06e98" d="M110.76,24.65c0,1.55-.42,1.91-1.93,1.91q-28.32-.09-56.65-.06H50.33v.44H111V12.51C110.72,16.56,110.65,20.6,110.76,24.65Z"/><path class="fc2ebac2-0ac7-41d0-8f83-3fcacaf06e98" d="M27.57,26.6H.42V27H28V12.35h-.39Z"/><path class="fc2ebac2-0ac7-41d0-8f83-3fcacaf06e98" d="M131.22,26.59H114.48v.33h17.14V4.24h-.41Z"/><path class="fc2ebac2-0ac7-41d0-8f83-3fcacaf06e98" d="M141.47,4.49V26.62H135l0,.32h7V4.46Z"/><path class="fc2ebac2-0ac7-41d0-8f83-3fcacaf06e98" d="M46.29,25.08c0,1.14-.37,1.46-1.46,1.45-3.86-.05-7.73,0-11.59,0-.43,0-.87.08-1.31.12l0,.27h14.5V15.16l-.21,0C46.26,18.48,46.22,21.78,46.29,25.08Z"/><path class="fc2ebac2-0ac7-41d0-8f83-3fcacaf06e98" d="M106,8a2,2,0,0,0,2-2,1.92,1.92,0,0,0-2-2.11,1.89,1.89,0,0,0-1.87,2.07A2,2,0,0,0,106,8Z"/><path class="fc2ebac2-0ac7-41d0-8f83-3fcacaf06e98" d="M100.12,8A2,2,0,0,0,102,5.86a2,2,0,0,0-2-2,1.94,1.94,0,0,0-1.9,2.06A2,2,0,0,0,100.12,8Z"/><path class="fc2ebac2-0ac7-41d0-8f83-3fcacaf06e98" d="M25.94,31.6A2,2,0,0,0,24,29.49a2.07,2.07,0,0,0-.1,4.13A2.07,2.07,0,0,0,25.94,31.6Z"/><path class="fc2ebac2-0ac7-41d0-8f83-3fcacaf06e98" d="M86.32,8.43A1.9,1.9,0,0,0,84.49,6.3a2.05,2.05,0,0,0-2,2,2,2,0,0,0,1.89,2.11A1.83,1.83,0,0,0,86.32,8.43Z"/><path class="fc2ebac2-0ac7-41d0-8f83-3fcacaf06e98" d="M84.33,4.11a1.83,1.83,0,0,0,2-1.94A1.88,1.88,0,0,0,84.54,0a2,2,0,0,0-2.07,2A2,2,0,0,0,84.33,4.11Z"/><path class="fc2ebac2-0ac7-41d0-8f83-3fcacaf06e98" d="M6.32,8A2.08,2.08,0,0,0,8.25,5.9,1.89,1.89,0,0,0,6.36,3.85a1.87,1.87,0,0,0-2,1.94A2,2,0,0,0,6.32,8Z"/><path class="fc2ebac2-0ac7-41d0-8f83-3fcacaf06e98" d="M12.36,8a2.07,2.07,0,0,0,1.93-2.08,1.91,1.91,0,0,0-1.9-2,1.88,1.88,0,0,0-2,2A2,2,0,0,0,12.36,8Z"/><path class="fc2ebac2-0ac7-41d0-8f83-3fcacaf06e98" d="M19.91,31.56A2.07,2.07,0,0,0,18,29.49a1.9,1.9,0,0,0-1.95,2A1.94,1.94,0,0,0,18,33.64,2.13,2.13,0,0,0,19.91,31.56Z"/><ellipse class="fc2ebac2-0ac7-41d0-8f83-3fcacaf06e98" cx="57.06" cy="12.83" rx="0.15" ry="11.62"/><path class="fc2ebac2-0ac7-41d0-8f83-3fcacaf06e98" d="M16.85,11.83h-.23V21h.23Z"/><path class="fc2ebac2-0ac7-41d0-8f83-3fcacaf06e98" d="M94.57,12.4l-.22,0V21h.22Z"/><path class="fc2ebac2-0ac7-41d0-8f83-3fcacaf06e98" d="M17.35,34.51a2.29,2.29,0,0,0,3.07-.2,2.5,2.5,0,0,0,.4-3.22C20.33,33.57,19.81,34.09,17.35,34.51Z"/><path class="fc2ebac2-0ac7-41d0-8f83-3fcacaf06e98" d="M87,4.7a2.3,2.3,0,0,0,.33-3C86.82,4,86.53,4.26,84,5.18A2.31,2.31,0,0,0,87,4.7Z"/><path class="fc2ebac2-0ac7-41d0-8f83-3fcacaf06e98" d="M5.62,8.89c1.33.65,2.32.57,3.17-.21s.9-1.87.58-3.14C8.11,8.33,8,8.42,5.62,8.89Z"/><path class="fc2ebac2-0ac7-41d0-8f83-3fcacaf06e98" d="M23.45,34.54a2.3,2.3,0,0,0,2.92-.15c1-.89,1.09-2,.5-3.62C26.46,33.47,26,34,23.45,34.54Z"/><path class="fc2ebac2-0ac7-41d0-8f83-3fcacaf06e98" d="M87,11.11c.82-.83,1.07-1.86.3-3.43a3.52,3.52,0,0,1-3.2,3.79A2.19,2.19,0,0,0,87,11.11Z"/><path class="fc2ebac2-0ac7-41d0-8f83-3fcacaf06e98" d="M99.63,9c2.73.74,4.14-.7,3.29-3.49C102.59,7.58,101.59,8.76,99.63,9Z"/><path class="fc2ebac2-0ac7-41d0-8f83-3fcacaf06e98" d="M105.63,8.93a2.32,2.32,0,0,0,2.74-.08c1-.81,1.08-1.89.66-3.54C108.63,7.6,107.66,8.8,105.63,8.93Z"/><path class="fc2ebac2-0ac7-41d0-8f83-3fcacaf06e98" d="M11.55,8.8c1.38.67,2.36.68,3.23-.13s1.07-1.85.52-3.28C15,7.59,13.87,8.71,11.55,8.8Z"/><ellipse class="fc2ebac2-0ac7-41d0-8f83-3fcacaf06e98" cx="101.49" cy="20.34" rx="3.9" ry="0.2"/><path class="fc2ebac2-0ac7-41d0-8f83-3fcacaf06e98" d="M38.92,15.86h-4v.27h4Z"/><path class="fc2ebac2-0ac7-41d0-8f83-3fcacaf06e98" d="M82.53,14.52l-.15.08v6.25h.15Z"/><path class="fc2ebac2-0ac7-41d0-8f83-3fcacaf06e98" d="M65.71,15.08a.81.81,0,0,0-.51.58c0,1.78,0,3.57,0,5.35h.58c0-1.38,0-2.75,0-4.12,0-1,.31-1.34,1.3-1.31,2.14,0,4.29,0,6.44,0l0-.52C70.87,15.06,68.29,15,65.71,15.08Z"/><path class="fc2ebac2-0ac7-41d0-8f83-3fcacaf06e98" d="M9,15.57C6,15.05,5.34,17.06,5.89,20.94,6,18.6,6.34,16.47,9,15.57Z"/></g></g></svg>