<svg xmlns="http://www.w3.org/2000/svg" viewBox="0 0 104.31 42"><defs><style>.fe92713c-7eee-499b-a79e-2f2e2aa27503{fill:#231f20;}</style></defs><g id="bd797b8f-c459-4395-bef6-90af3ade9121" data-name="Layer 2"><g id="fde31295-1581-4d5b-9493-af68d31d4a6b" data-name="Layer 1"><path class="fe92713c-7eee-499b-a79e-2f2e2aa27503" d="M91.38,0c-1.57,1.58-3.08,3.22-4.72,4.72A5.28,5.28,0,0,0,84.88,9c.06,4.77,0,9.53,0,14.3a20.9,20.9,0,0,1-.45,3h-4c-.36-4.78.13-9.5-.33-14.63a22.53,22.53,0,0,0-1.87,1.39c-.85.78-1.57,1.71-2.47,2.41A7.09,7.09,0,0,0,73,22.37a36.79,36.79,0,0,1,0,4.1c-8.84,0-17.31,0-26,0V23.57c0-2.92,0-5.85,0-8.77,0-1.93-.38-2.29-2.29-2.34s-4-.05-6,0A13.42,13.42,0,0,0,25.49,24a56.29,56.29,0,0,0-.38,7.57c0,1.81.71,2.44,2.56,2.47,3.15,0,6.3,0,9.45,0,.74,0,1.48.09,2.38.15.12,2.34.24,4.48.35,6.62l.55.15c1.63-1.61,3.36-3.13,4.86-4.85a6,6,0,0,1,5-2.12c13,.09,26,.05,39,0,2.61,0,3-.34,3-2.89s0-5.38,0-8.07l.09-23Zm-52,26.29h-6.2c-1.07-1.7-.17-3.11.8-4.35a5.4,5.4,0,0,1,5.4-2Z"/><path class="fe92713c-7eee-499b-a79e-2f2e2aa27503" d="M20,12.47c-2.07-.08-4.15,0-6.23,0C7.66,12.3,2.18,16.92.63,22.79A16.82,16.82,0,0,1,0,24.46V40.62c1,.49,1.56-.1,2.17-.72,1.51-1.53,3.09-3,4.54-4.58A3.92,3.92,0,0,1,10,34c3.23.08,6.46.06,9.68,0,1.83,0,2.35-.54,2.36-2.34C22,26,22,20.29,22,14.6,22,13,21.56,12.53,20,12.47ZM14.31,26.23H8c-.66-2,.25-3.62,1.71-5a4,4,0,0,1,4.63-.86Z"/><path class="fe92713c-7eee-499b-a79e-2f2e2aa27503" d="M99.51,2.05C98.93,1.4,98.4.69,97.85,0h-.93c-.11,1.36-.3,2.72-.31,4.09q0,13.9,0,27.83A26.64,26.64,0,0,0,97,34.87c2.9-2.65,5.41-4.86,7.33-7.64V7.38C102.71,5.61,101.1,3.84,99.51,2.05Z"/><path class="fe92713c-7eee-499b-a79e-2f2e2aa27503" d="M57.92,36.3a2.8,2.8,0,0,0-2,2.72c-.14,1.49,1.08,2,1.77,3h1.85a13.88,13.88,0,0,0,1.3-1.24,3,3,0,0,0,.08-3.39A2.62,2.62,0,0,0,57.92,36.3Z"/><path class="fe92713c-7eee-499b-a79e-2f2e2aa27503" d="M64.51,36.8a2.76,2.76,0,0,0-.61,3.87A14.77,14.77,0,0,0,65.08,42h1.84a15.38,15.38,0,0,0,1.23-1,2.78,2.78,0,0,0-3.64-4.19Z"/></g></g></svg>