<svg xmlns="http://www.w3.org/2000/svg" viewBox="0 0 154.88 34.63"><defs><style>.f3f73c5d-ce9a-4b36-bb3c-0097c687f9e4{fill:#231f20;}</style></defs><g id="ae4d43ba-adee-43d4-a033-f959d9c70c73" data-name="Layer 2"><g id="f95e3044-cd3d-48ec-8ba5-c532a8d0fda9" data-name="Layer 1"><path class="f3f73c5d-ce9a-4b36-bb3c-0097c687f9e4" d="M13.29,11.74a7.43,7.43,0,0,0-7.86-.82c-2.55,1.1-3.5,3.26-3.46,6,0,3.65-.06,7.3.06,10.94a2.61,2.61,0,0,1-2,3v3.8c3.83-.49,6.62-2.11,6.8-6.4l4.85-.52A11.12,11.12,0,0,1,9.12,26.1c-.91-1.13-2-2.35-2.31-3.69a27.5,27.5,0,0,1-.13-6.16c0-1.44.77-2.13,2-2.15s1.91.61,2,2.12c.07,1.66.06,3.33,0,5a4.84,4.84,0,0,1-.4,2.28c-.32.52-1.16.72-1.92,1.14a15.15,15.15,0,0,0,1.61.81,8.16,8.16,0,0,0,1.63.35c2.54.33,3.55-.43,3.67-3,.11-2.45,0-4.91,0-7.37A4.55,4.55,0,0,0,13.29,11.74Z"/><path class="f3f73c5d-ce9a-4b36-bb3c-0097c687f9e4" d="M48.59,4.69c-.05-3.17-1-4.05-4.45-4.64,0,.88-.1,1.73-.1,2.57q0,8.93,0,17.84c0,.63,0,1.27-.05,1.9a1.79,1.79,0,0,1-2,1.86,1.83,1.83,0,0,1-2-1.92c-.07-2.53,0-5.07,0-7.61v-4H35.27v2.48c0,2.86,0,5.71,0,8.57,0,1.67-.65,2.42-1.9,2.46s-2-.77-2-2.57,0-3.65,0-5.47c-.09-3.28-1.33-4.22-4.56-3.47-.68.16-1.31.51-2,.71a7.13,7.13,0,0,1-1.23.15l3.68-2.95c-1-.14-1.7-.31-2.44-.34-3.5-.15-7.11,2.16-6.77,6.48.14,1.73,0,3.48,0,5.23.08,3.53,2.14,5.72,5.68,6.06.92.09,1.85.1,2.78.14-.22,2.09-.68,2.49-2.43,2.37s-3.73-.2-5.72-.31A6.09,6.09,0,0,0,25,34.46a11.16,11.16,0,0,0,4.33-1.67c1.64-1,2-2.9,2.09-4.61a22.53,22.53,0,0,0,4.4-.59,4.77,4.77,0,0,1,3.56,0c3.83,1.47,9.59-.29,9.32-6.29C48.45,15.79,48.69,10.24,48.59,4.69Zm-22,17.77a1.71,1.71,0,0,1-1.85,1.75c-1,.05-1.93-.33-1.94-1.32,0-3.12-.79-6.31.68-9.31,3.13,1.29,3.14,1.31,3.14,4.85C26.65,19.77,26.67,21.12,26.62,22.46Z"/><path class="f3f73c5d-ce9a-4b36-bb3c-0097c687f9e4" d="M128.36,11c-3.78-1.88-10.52-.36-10.06,5.92a41.49,41.49,0,0,1,0,5.23c-.07,1.44-.83,2.12-2,2.11s-1.87-.7-2-2.16c0-.55,0-1.11,0-1.66V0c-3.41.65-4.43,1.4-4.49,4-.14,6.26-.1,12.52,0,18.78a5,5,0,0,0,3.27,4.58,7.49,7.49,0,0,0,6.44.06,2.58,2.58,0,0,1,2.43,0,7.76,7.76,0,0,0,5.63.27L124,24.8c1.13.31,2.25.67,3.4.89,2.89.57,4.07-.29,4.21-3.17.11-2.22.06-4.44,0-6.66A5.35,5.35,0,0,0,128.36,11Zm-3.48,13.31a3.2,3.2,0,0,0-1,.44,6.07,6.07,0,0,1-.93-4c0-1.5,0-3,0-4.5s.76-2.1,2-2.07,1.89.7,1.95,2.16c.06,1.82,0,3.64,0,5.45C127,23.21,126.48,24.13,124.88,24.28Z"/><path class="f3f73c5d-ce9a-4b36-bb3c-0097c687f9e4" d="M86.7,10.68c0,.46,0,.92-.06,1.39,0,3,0,6,0,9,0,2.59-.44,3-3.08,3-1.11,0-2.22,0-3.33,0H69.78c-1.25,0-2.62-.13-2.7-1.67-.16-2.73,0-5.49,0-8.25L70.49,14V10.37c-1.53,0-2.88-.11-4.2,0a4,4,0,0,0-3.93,4.22c-.09,2.37-.07,4.76,0,7.13.06,3.46,2.19,6,5.67,6.11,5.85.2,11.72.16,17.58,0,3-.08,5.47-2.31,5.61-4.88a87.93,87.93,0,0,0,0-9C91.09,11.61,89.28,10.38,86.7,10.68Z"/><path class="f3f73c5d-ce9a-4b36-bb3c-0097c687f9e4" d="M143.13.21V3.76c0,6,0,12.05,0,18.07,0,1.64-.7,2.38-2,2.39s-1.9-.68-2-2.37c0-1.07,0-2.15,0-3.23h-4.64c0,1.43-.05,2.62,0,3.8.15,3.44,2.74,5.66,6.59,5.67s6.58-2.24,6.64-5.65c.11-6,.09-12,0-18.07C147.71,1.5,146.27.28,143.13.21Z"/><path class="f3f73c5d-ce9a-4b36-bb3c-0097c687f9e4" d="M102.43,10.57v2.57c0,4.92,0,9.84,0,14.76,0,2.33-.6,2.73-2.85,2.56-1.72-.13-3.46,0-5.38,0a7,7,0,0,0,10.14,3A5,5,0,0,0,107.05,29c0-4.92.06-9.84-.06-14.75C106.93,11.57,105.42,10.41,102.43,10.57Z"/><path class="f3f73c5d-ce9a-4b36-bb3c-0097c687f9e4" d="M51.28,4.71q-.11,8.9,0,17.8c0,2.85,1.42,4.32,4.43,5.08V0C52.15.74,51.31,1.55,51.28,4.71Z"/><path class="f3f73c5d-ce9a-4b36-bb3c-0097c687f9e4" d="M150.3,4.11c0,6.19-.06,12.38,0,18.57,0,2.64,1.81,4.38,4.54,4.88V.05C151.88.09,150.29,2.11,150.3,4.11Z"/><path class="f3f73c5d-ce9a-4b36-bb3c-0097c687f9e4" d="M98.31,27.72V0C95.05.71,94,1.44,94,4.05q-.21,9.38,0,18.77C94,25.39,95.68,27,98.31,27.72Z"/><path class="f3f73c5d-ce9a-4b36-bb3c-0097c687f9e4" d="M134.79,16.53h4.26V0c-3.51.6-4.44,1.58-4.48,4.76,0,3.4,0,6.79,0,10.18A9.24,9.24,0,0,0,134.79,16.53Z"/><path class="f3f73c5d-ce9a-4b36-bb3c-0097c687f9e4" d="M137.68,29.38c-.9,0-1.52,0-2.15,0a2.11,2.11,0,0,0-.7.13c-1.14.44-1.31,1.41-.35,2.14.66.49,1.41.86,2.31,1.39l-2.08,1.24c3.07.51,4,.25,5.57-1.59l-3.41-1.95Z"/><path class="f3f73c5d-ce9a-4b36-bb3c-0097c687f9e4" d="M81.52,14.39a2.39,2.39,0,0,0,2.61-2.12A2.32,2.32,0,0,0,81.8,10.1a2.61,2.61,0,0,0-2.77,2A2.43,2.43,0,0,0,81.52,14.39Z"/><path class="f3f73c5d-ce9a-4b36-bb3c-0097c687f9e4" d="M34.75,29.92a2.15,2.15,0,1,0,.17,4.24A2.36,2.36,0,0,0,37.46,32,2.49,2.49,0,0,0,34.75,29.92Z"/><path class="f3f73c5d-ce9a-4b36-bb3c-0097c687f9e4" d="M41,29.92a2.52,2.52,0,0,0-2.76,2,2.32,2.32,0,0,0,2.49,2.24c1.51,0,2.57-.82,2.58-2.09A2.22,2.22,0,0,0,41,29.92Z"/><path class="f3f73c5d-ce9a-4b36-bb3c-0097c687f9e4" d="M75.54,14.39a2.51,2.51,0,0,0,2.73-2.1,2.42,2.42,0,0,0-2.4-2.19,2.36,2.36,0,0,0-2.67,2.1A2.28,2.28,0,0,0,75.54,14.39Z"/></g></g></svg>