<svg xmlns="http://www.w3.org/2000/svg" viewBox="0 0 109.94 74.2"><defs><style>.bde6026d-e2ab-4e3d-b816-306635b12a51{fill:#231f20;}</style></defs><g id="f4b2958c-7d64-40f3-9a5d-aa54b2055c9f" data-name="Layer 2"><g id="bd0ffbb3-863a-430b-821f-e3084f6d2d67" data-name="Layer 1"><path class="bde6026d-e2ab-4e3d-b816-306635b12a51" d="M11.41,68.11c1.44,2.35,4.41-.25,4.68,3.27L11.16,72V74.2h7.47V59.47H11.41Zm4.33-6.43c.62,4.56.62,4.56-2.06,4.84C14.13,64.84,12.39,62.59,15.74,61.68Z"/><path class="bde6026d-e2ab-4e3d-b816-306635b12a51" d="M107.66,54.65V69.24h2.28V54.35Z"/><path class="bde6026d-e2ab-4e3d-b816-306635b12a51" d="M64.64,37.47c5.81,5.34,12.48,7.89,20.47,6.2,8.42-1.78,14.06-6.75,16.83-14.79s.94-15.52-4.9-21.73C88.12-2.31,74.27-2.36,64.5,6.88c-3,2.82-5.85,5.73-9.1,8.93-3.11-3.23-5.89-6.3-8.87-9.15C40.52.9,33.32-1.2,25.21.77A20,20,0,0,0,12.53,9.52l6,.77v8.08H27.3c.15-2.72.28-5.27.43-8a11,11,0,0,1,10.85,2.44c3.29,2.88,6.18,6.22,9.24,9.36l7.28,7.08C56.22,29.92,62.51,35.51,64.64,37.47Zm8.2-24.79a12.23,12.23,0,0,1,14.29-1.1c4.2,2.54,6.8,7.83,6,12.25a12.78,12.78,0,0,1-10,10.33c-4.24.92-7.94-.46-11.06-3.24s-5.72-5.55-8.88-8.64C66.62,18.84,69.52,15.52,72.84,12.68Z"/><path class="bde6026d-e2ab-4e3d-b816-306635b12a51" d="M102.23,54.88v12l-3.08-.46c-.13-2.42-.25-4.56-.39-7.24-4.53,1.49-1.58,5.33-3.25,7.37H91V59H82.78c0,1.85,0,3.34,0,4.83,0,2.5-.07,2.49-2.4,2.55-.73-6.28-.73-6.28-2.75-6.45-.11,2.16-.22,4.31-.33,6.66H74V59.38c-5.09.87-.81,6-4.7,7.68-.14-3-.26-5.6-.37-8.11H61.12V69.08h43.8c0-4.46,0-8.58,0-12.71C104.93,54.77,104.29,54.13,102.23,54.88ZM65.85,67.58c-1.16-1.18-2.19-1.77-2.16-2.31.07-1.44-1.15-3.74,2.16-3.91Zm22.45-.26c-1.23-1-2.32-1.42-2.48-2.08-.59-2.39.05-3.3,2.48-3.68Z"/><path class="bde6026d-e2ab-4e3d-b816-306635b12a51" d="M46.29,37.82c2.84-2.56,5.06-4,7.76-6.7-1.21-.78-6.14-5.71-7.58-6.68-2.32,2.08-4.7,4.09-6.92,6.26a11.21,11.21,0,0,1-8,3.63c-2.64,0-5.27-.92-7.9-1.44V43C32.7,45.72,40,43.52,46.29,37.82Z"/><path class="bde6026d-e2ab-4e3d-b816-306635b12a51" d="M23.65,32.89v-.06h-.06v.05Z"/><path class="bde6026d-e2ab-4e3d-b816-306635b12a51" d="M37,62.67c-.06,1.14-.13,2.56-.2,3.88H29.09v-7H21c.43,3.91,4,1,5.11,2.95v3.65C24.41,67.9,21,65.11,20.3,69.1H39.69V59.48H31C31.76,63.47,35.39,60.67,37,62.67Z"/><path class="bde6026d-e2ab-4e3d-b816-306635b12a51" d="M54.59,66.72l-2.66-.2V54c-3.82,1.48-2.13,4.19-2.42,6.07a59.48,59.48,0,0,0-.29,6.55l-1,0c-.13-1-.35-2-.38-3,0-2.47.08-5-.09-7.42-.05-.7-.89-1.35-1.36-2l-.94.4c-.07,1.2-.12,2.4-.2,3.59-.25,3.59,1.15,7.49-3,10.86H57.44v-10C53.42,61,56.27,64.57,54.59,66.72Z"/><path class="bde6026d-e2ab-4e3d-b816-306635b12a51" d="M2.41,60.33a7.39,7.39,0,0,0,1.73,1.42,13.59,13.59,0,0,0,2.78.53c-.1,1.6-.19,2.91-.25,4-2,1.55-5.25-1-6.67,2.92H9.24v-9.6H2.8Z"/><path class="bde6026d-e2ab-4e3d-b816-306635b12a51" d="M18.48,18.43h0v-.06h0Z"/><path class="bde6026d-e2ab-4e3d-b816-306635b12a51" d="M11.49,25.5H7.31v3.88h4.18V25.51h7V18.43l-7.29.39Z"/><path class="bde6026d-e2ab-4e3d-b816-306635b12a51" d="M18.59,40.54V32.88H11.2A18.44,18.44,0,0,0,18.59,40.54Z"/><path class="bde6026d-e2ab-4e3d-b816-306635b12a51" d="M18.59,32.83v.05h.06v-.05Z"/><path class="bde6026d-e2ab-4e3d-b816-306635b12a51" d="M23.59,27.35H18.65v5.48h4.94Z"/><path class="bde6026d-e2ab-4e3d-b816-306635b12a51" d="M7,14.45c.11,1.6.19,2.77.28,4.06l3.83.26c.14-1.4.27-2.79.45-4.59Z"/><path class="bde6026d-e2ab-4e3d-b816-306635b12a51" d="M11.14,18.77v.05h.06v-.05Z"/><path class="bde6026d-e2ab-4e3d-b816-306635b12a51" d="M70.88,71.8c-.42.11-.59,1.13-.88,1.74a1.24,1.24,0,0,0,.1.66h5.81l-3.55-.85C72.71,72,72,71.52,70.88,71.8Z"/></g></g></svg>