<svg xmlns="http://www.w3.org/2000/svg" viewBox="0 0 90.04 59"><defs><style>.b71d6ec9-4e90-412a-9751-f3b16372b037{fill:#231f20;}</style></defs><g id="fd6e58a0-b6a6-4b86-a161-303b166fb295" data-name="Layer 2"><g id="b3c50a1f-751e-416b-9ed9-aa601b6f2c93" data-name="Layer 1"><path class="b71d6ec9-4e90-412a-9751-f3b16372b037" d="M89.71,15.23A15.44,15.44,0,0,0,75.81.36,13,13,0,0,1,74.35,0H73c-.06.68-.16,1.35-.16,2,0,6.19,0,12.38,0,18.58,0,.6-.06,1.2-.09,1.78H66.46a13.45,13.45,0,0,0,1.17-1.89A18.38,18.38,0,0,0,69.15,16c.44-4.15-1.77-6.57-6-6.77-1.92-.09-3.86,0-5.79,0a1.59,1.59,0,0,0-1.73,1.29c-.41,1.23-.78,2.49-1.31,3.68a2.77,2.77,0,0,0,.68,3.62A6.54,6.54,0,0,1,57.3,22.4h-7v-13c-3.37.15-5.58,2.34-5.61,5.53,0,4.09,0,8.18,0,12.27,0,2.75-.51,3.48-3.07,4.46V37c4.61.2,7.3-2.41,9-8.83,2.26,0,4.58,0,6.9,0,1.94,0,3.68-.32,4.66-2.32,1,1.83,1.78,2.31,3.9,2.32,3.7,0,7.39,0,11.08,0A10.49,10.49,0,0,0,78.55,28V7.54A5.06,5.06,0,0,1,82.38,10a12.12,12.12,0,0,1,1.82,6.81c0,3.18,0,6.36,0,9.54,0,.55.06,1.09.11,1.83L90,28V18.42C89.93,17.36,89.76,16.3,89.71,15.23Zm-26,2.25A4.27,4.27,0,0,1,62.14,20c-.06-2.23-1.33-3.89-2.87-5.77.93,0,1.48,0,2,0C63.58,14.27,64.31,15.26,63.73,17.48Z"/><path class="b71d6ec9-4e90-412a-9751-f3b16372b037" d="M9.45,5.75c.81.09,1.83,0,2-.9.24-1.66.76-3.47-.83-4.85H7.16A4.6,4.6,0,0,0,6.09,4.86C6.87,6.31,8.29,5.62,9.45,5.75Z"/><path class="b71d6ec9-4e90-412a-9751-f3b16372b037" d="M20.53,5a4.69,4.69,0,0,0-1.09-5H16.37c-1.23.91-1.84,3.74-1.07,5S19.86,6.12,20.53,5Z"/><path class="b71d6ec9-4e90-412a-9751-f3b16372b037" d="M86,48.5c-1.27.24-1.76.76-2,2.42.61-.31,1.17-.43,1.44-.78a1.65,1.65,0,0,1,2.11-.56c.85.31.93,1,.68,1.89-.46,0-.91,0-1.35.07a8.3,8.3,0,0,0-1.49.26,2.44,2.44,0,0,0-1.87,3,2.38,2.38,0,0,0,3.13,1.55,3.7,3.7,0,0,1,2.86-.11,1.57,1.57,0,0,0,.49.06v-5.8A3.36,3.36,0,0,0,86,48.5Zm.23,6.74A1.93,1.93,0,0,1,85,54.16c-.1-.32.39-1.09.78-1.26a11.81,11.81,0,0,1,2.54-.49C88.34,54.6,87.62,55.52,86.26,55.24Z"/><path class="b71d6ec9-4e90-412a-9751-f3b16372b037" d="M5.35,48.8a4.24,4.24,0,0,0-3.47,0A1.58,1.58,0,0,0,.76,50.51c.68.43,1.1.21,1.51-.43a1.54,1.54,0,0,1,2.12-.46c.8.36.87,1.06.6,1.92-2.13-.13-4.07.09-5,2.35v.68c1.27,2,2.35,2.35,4.53,1.36a1.4,1.4,0,0,1,.78,0c.35.07.69.18,1.21.33V50.51A1.74,1.74,0,0,0,5.35,48.8ZM2.86,55.24a1.72,1.72,0,0,1-1.11-1,1.55,1.55,0,0,1,.72-1.3A11.84,11.84,0,0,1,5,52.38C5.09,54.57,4.27,55.58,2.86,55.24Z"/><path class="b71d6ec9-4e90-412a-9751-f3b16372b037" d="M15.05,28H38.93V9.41c-3.15.12-5.31,2.12-5.49,5-.06.9,0,1.81,0,2.72,0,1.74,0,3.49,0,5.26h-3.5v-13c-2.73-.37-5.64,2.3-5.65,5.28q0,3.24,0,6.48c0,.42-.09.85-.12,1.19H20.69v-13C8.31,8.43.08,19.79.44,28H6.19a14.58,14.58,0,0,1,2.53-7.39c1.61-2.15,3.39-4,6.33-4.65Z"/><path class="b71d6ec9-4e90-412a-9751-f3b16372b037" d="M53.76,49.1V45.5H52.24c0,3.27,0,6.43,0,9.59,0,.33,0,.67.09,1.25l1.79-.66a3.49,3.49,0,0,0,4.39-.36,5.22,5.22,0,0,0,.42-5.43C58,48.44,56.53,48.19,53.76,49.1Zm4,4.68a2,2,0,0,1-3.89-.33,6.45,6.45,0,0,1,0-2,2.06,2.06,0,0,1,1.94-2,2.12,2.12,0,0,1,2.1,1.84A8.47,8.47,0,0,1,58,52.4,13.11,13.11,0,0,1,57.73,53.78Z"/><path class="b71d6ec9-4e90-412a-9751-f3b16372b037" d="M20.75,35.11c.11-3.34-.24-3.68-3.64-3.51a4.79,4.79,0,0,0-.84.09,1.55,1.55,0,0,0-1.21,1.93c.14,1.2-.62,2.69,1,3.46a1.51,1.51,0,0,0,.67.08c.4,0,.79,0,1.19,0h.85C20.33,37.12,20.7,36.75,20.75,35.11Z"/><path class="b71d6ec9-4e90-412a-9751-f3b16372b037" d="M26.47,31.6a5.92,5.92,0,0,0-.84,0,1.38,1.38,0,0,0-1.37,1.61c.17,1.3-.74,2.89.94,3.81a1.5,1.5,0,0,0,.67.09c.39,0,.79,0,1.19,0h.84c1.57,0,2-.44,2-2C30.07,31.85,29.73,31.5,26.47,31.6Z"/><path class="b71d6ec9-4e90-412a-9751-f3b16372b037" d="M38,31.8a7.34,7.34,0,0,0-4,.18c-1.17.44-.54,1.91-.66,2.93a5.91,5.91,0,0,0,0,.84,1.35,1.35,0,0,0,1.39,1.4c.45,0,.9,0,1.35,0v0A7.55,7.55,0,0,0,38,37.07c1.2-.37,1.08-1.46,1-2.4S39.48,32.11,38,31.8Z"/><path class="b71d6ec9-4e90-412a-9751-f3b16372b037" d="M23.61,48.53c-1.72-.37-3.23.2-3.77,1.44a3.53,3.53,0,0,0,.05,1,7.87,7.87,0,0,0,1.39-.93,1.69,1.69,0,0,1,2.14-.45,1.36,1.36,0,0,1,.74,1.73,24.57,24.57,0,0,0-3.27.58,2.43,2.43,0,0,0-1.67,2.65,2.21,2.21,0,0,0,2.33,1.83,12.61,12.61,0,0,0,2.6-.59l1.43.58c0-2,0-3.67,0-5.36S25.05,48.83,23.61,48.53Zm-1.47,6.72a2,2,0,0,1-1.33-1,1,1,0,0,1,.81-1.43c.79-.19,1.62-.26,2.45-.39C24.18,54.48,23.52,55.44,22.14,55.25Z"/><path class="b71d6ec9-4e90-412a-9751-f3b16372b037" d="M44.8,48.62a3.46,3.46,0,0,0-4,1.07,5.66,5.66,0,0,0-.23,1.38,7.33,7.33,0,0,0,1.56-1,1.66,1.66,0,0,1,2.14-.47A1.28,1.28,0,0,1,45,51.39a21.07,21.07,0,0,0-2.92.44,2.38,2.38,0,0,0-1.86,2.81A2.44,2.44,0,0,0,43,56.44c1.09-.16,2.08-1.17,3.44,0,0-2,0-3.6,0-5.23S46.1,49,44.8,48.62Zm-2,6.62a1.67,1.67,0,0,1-1.14-1,1.54,1.54,0,0,1,.7-1.31,11.72,11.72,0,0,1,2.56-.55C45,54.55,44.24,55.57,42.82,55.24Z"/><path class="b71d6ec9-4e90-412a-9751-f3b16372b037" d="M77.31,49.67c-.65,1.51-1.28,3-2,4.83-.76-1.86-1.39-3.31-1.93-4.8-.34-.94-.88-1.23-1.93-.8.61,1.47,1.16,2.94,1.84,4.35.88,1.84,1.59,3.65,0,5.57,1.18.44,1.59,0,1.93-.79,1-2.41,2-4.78,3.08-7.17.28-.65.53-1.31.81-2C77.72,48.77,77.7,48.77,77.31,49.67Z"/><path class="b71d6ec9-4e90-412a-9751-f3b16372b037" d="M12.42,56.15h1.31V45.51H12.42Z"/><path class="b71d6ec9-4e90-412a-9751-f3b16372b037" d="M34.81,48.67a8.63,8.63,0,0,0-1.54.59l-1.79-.62V56.1c.94.25,1.42.1,1.4-.8,0-.73,0-1.47,0-2.21,0-2.3,0-2.29,2.26-3.2.23-.09.35-.47.51-.72C35.38,49,35.05,48.62,34.81,48.67Z"/><path class="b71d6ec9-4e90-412a-9751-f3b16372b037" d="M65,56.16h1.32V48.79H65Z"/><path class="b71d6ec9-4e90-412a-9751-f3b16372b037" d="M64.92,47l1.48-.1V45.48H64.79Z"/></g></g></svg>