<?xml version="1.0" standalone="no"?>
<!DOCTYPE svg PUBLIC "-//W3C//DTD SVG 20010904//EN"
 "http://www.w3.org/TR/2001/REC-SVG-20010904/DTD/svg10.dtd">
<svg version="1.0" xmlns="http://www.w3.org/2000/svg"
 width="720.000000pt" height="720.000000pt" viewBox="0 0 720.000000 720.000000"
 preserveAspectRatio="xMidYMid meet">
<metadata>
Created by potrace 1.14, written by Peter Selinger 2001-2017
</metadata>
<g transform="translate(0.000000,720.000000) scale(0.100000,-0.100000)"
fill="#000000" stroke="none">
<path d="M3301 7093 c-53 -152 -60 -228 -27 -308 17 -39 19 -60 31 -270 8
-131 11 -192 19 -390 l6 -150 -62 -41 c-43 -28 -63 -48 -64 -62 l-1 -21 27 19
c16 11 32 20 38 20 5 0 21 9 35 20 24 19 26 19 31 3 3 -10 8 -85 12 -168 8
-190 11 -253 19 -395 3 -63 8 -151 10 -195 8 -159 16 -302 21 -390 2 -49 6
-119 8 -155 4 -71 15 -260 22 -355 2 -33 6 -100 9 -150 3 -49 7 -119 10 -155
2 -36 7 -108 10 -161 l5 -95 -83 -80 c-159 -155 -262 -232 -396 -299 -40 -21
-79 -38 -85 -40 -6 -1 -23 -7 -37 -13 -84 -34 -124 -35 -202 -5 -145 56 -203
186 -171 383 34 215 184 539 379 817 30 43 67 101 83 128 39 67 82 111 172
177 95 70 109 86 153 178 53 110 65 143 58 162 -5 14 -30 3 -152 -70 -243
-146 -289 -152 -482 -63 -161 74 -182 109 -103 178 60 53 173 117 213 121 35
4 46 -11 58 -76 6 -37 41 -65 65 -52 18 10 23 21 62 141 63 194 -16 326 -157
264 -124 -54 -270 -199 -349 -349 -14 -27 -30 -54 -34 -60 -24 -32 -104 -225
-105 -252 0 -17 7 -43 16 -58 17 -25 159 -126 178 -126 25 0 2 -29 -54 -70
-52 -38 -68 -57 -97 -117 -65 -132 -81 -190 -55 -199 16 -7 81 26 115 57 26
24 68 54 105 75 11 6 88 53 170 104 83 50 159 96 169 102 11 6 -15 -39 -56
-98 -139 -201 -186 -272 -217 -326 -123 -211 -195 -401 -215 -562 -3 -22 -8
-52 -11 -66 -9 -45 -7 -157 5 -217 25 -126 71 -221 148 -305 161 -174 380
-163 606 32 16 14 91 87 166 163 76 77 140 135 142 130 5 -9 4 -70 -7 -268 -9
-181 -11 -207 -20 -285 -10 -87 -12 -132 -7 -147 6 -19 37 -16 54 5 24 28 67
162 83 262 3 19 10 58 15 85 9 48 13 73 25 175 3 25 8 54 9 65 6 33 20 178 20
203 0 12 3 22 6 22 3 0 4 15 2 33 -3 28 3 39 35 71 83 81 337 236 497 303 34
14 75 31 91 38 17 7 55 22 85 33 30 11 64 24 75 28 11 4 22 8 25 9 3 0 70 23
150 50 80 27 150 50 155 51 56 12 369 152 385 172 3 4 24 20 48 36 103 70 192
205 228 346 11 42 17 113 19 200 1 113 -2 149 -21 220 -72 272 -163 436 -294
531 -94 68 -221 76 -331 22 -191 -96 -313 -328 -269 -512 7 -28 16 -51 21 -51
5 0 9 -6 9 -14 0 -24 88 -94 144 -115 28 -10 92 -22 142 -25 51 -4 100 -8 110
-10 11 -2 41 -7 68 -10 27 -4 52 -9 56 -11 4 -2 20 -6 36 -9 63 -12 148 -51
182 -84 30 -31 34 -40 29 -73 -3 -21 -16 -51 -29 -67 -22 -27 -110 -92 -125
-92 -3 0 -14 -6 -22 -14 -19 -16 -227 -99 -291 -116 -25 -6 -80 -23 -123 -37
-43 -14 -84 -26 -90 -27 -7 -1 -16 -4 -22 -7 -8 -5 -38 -14 -80 -25 -70 -17
-429 -179 -525 -237 -97 -58 -203 -130 -272 -185 l-77 -61 -5 52 c-4 29 -9 92
-11 142 -3 49 -7 119 -10 155 -4 67 -14 238 -20 345 -2 33 -6 103 -9 155 -4
52 -8 133 -11 180 -5 102 -14 243 -21 325 -3 33 -7 101 -9 150 -3 50 -7 119
-9 155 -3 36 -7 103 -10 150 -3 47 -8 123 -12 170 -3 47 -7 104 -9 127 -1 23
2 47 9 52 6 5 73 45 149 89 76 45 184 114 240 153 111 79 295 256 344 332 l31
47 53 -37 c30 -20 56 -39 59 -42 6 -7 48 -31 54 -31 8 0 26 64 26 96 0 25 -10
41 -46 76 -60 56 -66 74 -48 134 8 27 15 76 16 109 3 114 -55 162 -140 116
-67 -36 -155 -160 -155 -218 0 -37 3 -41 121 -144 12 -11 22 -23 22 -28 0 -7
-115 -120 -205 -202 -86 -77 -492 -364 -527 -371 -8 -2 -13 10 -14 37 -1 22
-5 74 -8 115 -17 202 -17 240 -2 240 8 0 29 -19 48 -41 41 -52 90 -99 102 -99
9 0 0 87 -14 135 -106 354 -249 675 -299 675 -5 0 -23 -39 -40 -87z m997 -121
c6 -5 15 -28 18 -53 3 -24 7 -48 8 -54 2 -5 0 -17 -3 -26 -5 -14 -15 -10 -58
23 -60 44 -76 81 -47 103 21 16 62 19 82 7z m626 -1602 c24 -12 65 -40 92 -64
l48 -44 -49 0 c-28 0 -93 -1 -146 -2 -105 -3 -139 8 -139 43 0 27 7 36 44 65
37 28 92 29 150 2z"/>
<path d="M2692 6792 c-78 -41 -140 -133 -147 -216 -5 -57 31 -134 78 -166 26
-18 37 -32 37 -51 0 -52 -95 -167 -228 -274 -34 -27 -62 -53 -62 -57 0 -5 -6
-8 -14 -8 -8 0 -16 -4 -18 -8 -1 -5 -30 -28 -63 -53 -33 -24 -62 -46 -65 -49
-3 -4 -34 -26 -70 -51 -36 -24 -67 -47 -70 -50 -3 -3 -36 -27 -75 -54 -244
-168 -397 -281 -448 -331 -62 -61 -14 -40 270 122 65 37 127 72 138 78 44 25
218 138 225 147 3 3 16 12 30 19 30 16 194 144 232 181 14 14 39 37 55 51 53
46 179 186 221 246 29 40 45 40 74 0 26 -37 31 -103 16 -191 -24 -136 -13
-213 35 -234 61 -28 150 75 162 188 l4 41 -40 -46 c-22 -25 -45 -46 -49 -46
-30 0 -39 86 -27 254 6 84 -3 117 -42 162 -37 42 -38 51 -6 145 64 185 -20
323 -153 251z m58 -152 c18 -34 10 -143 -12 -156 -10 -7 -85 64 -112 107 -14
22 -14 28 -3 37 38 32 112 39 127 12z"/>
<path d="M4988 6609 c-17 -9 -38 -49 -68 -129 -22 -57 -49 -90 -74 -90 -13 0
-54 16 -92 36 -245 130 -245 130 -321 -18 -41 -80 -49 -113 -33 -143 11 -21
100 -72 139 -80 10 -2 50 -19 90 -39 39 -20 74 -37 77 -37 17 -3 67 63 104
134 60 115 56 113 131 64 136 -88 200 -119 243 -115 25 3 36 13 68 68 21 36
41 73 44 83 4 9 10 17 15 17 5 0 8 3 7 8 -1 4 2 19 6 35 6 19 3 35 -8 52 -16
24 -84 64 -135 80 -14 4 -48 22 -76 41 -61 39 -93 48 -117 33z"/>
<path d="M2024 6591 c-27 -12 -71 -65 -90 -109 -29 -71 -57 -218 -58 -315 -1
-20 -4 -37 -7 -37 -4 0 -23 34 -43 77 -44 92 -109 186 -165 236 -65 59 -113
61 -151 6 -12 -16 -22 -39 -24 -52 -1 -13 -6 -28 -10 -35 -10 -16 3 -53 23
-70 16 -13 76 -43 99 -49 27 -7 47 -12 54 -12 4 -1 23 -15 42 -32 42 -36 74
-101 111 -224 26 -85 50 -135 64 -135 6 0 26 41 35 75 5 22 12 63 21 140 3 28
8 66 11 86 2 20 7 59 10 85 8 61 12 89 14 89 1 0 3 11 6 24 8 42 35 90 56 97
24 7 74 -12 82 -32 8 -20 50 -17 69 4 17 18 21 39 19 79 -2 24 -74 103 -94
103 -7 0 -22 2 -33 5 -11 2 -29 0 -41 -4z"/>
<path d="M5597 6476 c-27 -47 -55 -105 -62 -129 -13 -43 -12 -127 1 -148 7
-11 8 -30 29 -334 24 -344 37 -738 50 -1460 5 -321 15 -775 19 -927 3 -101 -2
-115 -33 -99 -11 7 -21 10 -21 7 0 -3 -25 4 -55 14 -30 10 -55 17 -55 14 0 -2
-16 2 -35 10 -19 8 -35 13 -35 10 0 -3 -8 0 -18 5 -11 6 -30 12 -45 15 -14 2
-76 20 -139 39 -119 36 -279 80 -338 93 -19 4 -39 9 -45 10 -5 1 -28 6 -50 9
-22 4 -47 9 -55 10 -26 5 -134 19 -150 19 -17 0 -137 -15 -160 -19 -8 -2 -30
-6 -49 -9 -56 -11 -117 -43 -150 -81 -69 -79 -125 -237 -88 -250 6 -2 64 -7
127 -10 63 -2 133 -9 155 -15 197 -52 295 -54 364 -6 46 32 48 32 145 1 44
-14 89 -27 100 -29 12 -3 65 -16 119 -31 54 -14 106 -28 115 -30 9 -2 53 -13
97 -25 44 -12 89 -23 100 -25 77 -16 184 -49 178 -55 -12 -10 -292 -100 -320
-102 -7 -1 -13 -4 -13 -8 0 -4 -6 -7 -12 -7 -7 0 -67 -18 -133 -40 -259 -87
-499 -163 -650 -204 -44 -12 -87 -24 -95 -27 -8 -3 -20 -6 -26 -7 -5 -2 -46
-12 -90 -23 -43 -11 -97 -23 -119 -28 -45 -8 -54 -11 -57 -14 -3 -2 -18 -5
-63 -13 -16 -3 -41 -8 -55 -11 -13 -3 -40 -8 -60 -11 -20 -3 -45 -7 -55 -9
-18 -3 -81 -12 -155 -22 -142 -19 -429 -25 -554 -11 -201 22 -385 81 -531 168
-75 46 -94 61 -175 139 -157 151 -231 296 -255 500 -3 25 -8 61 -11 80 -3 19
-7 118 -9 220 -5 210 -11 301 -25 380 -5 30 -12 75 -15 100 -7 52 -15 105 -20
129 -1 9 -6 36 -11 61 -4 25 -8 47 -9 50 -1 3 -5 25 -9 50 -31 177 -117 474
-183 627 -34 79 -52 116 -124 247 l-21 39 -18 -31 c-68 -112 -73 -300 -11
-496 11 -37 23 -78 25 -90 2 -11 9 -41 15 -66 7 -25 14 -56 17 -69 3 -13 16
-67 29 -120 29 -118 54 -219 60 -246 20 -91 86 -415 90 -448 4 -23 9 -58 13
-77 30 -162 -18 -281 -178 -440 -99 -98 -115 -112 -245 -209 -60 -46 -125 -95
-144 -109 -18 -15 -41 -31 -50 -36 -9 -5 -22 -16 -29 -23 -7 -7 -17 -13 -21
-13 -4 0 -8 352 -8 783 0 852 -7 1201 -27 1527 -13 208 -16 247 -21 281 -3 20
-8 63 -10 95 -3 32 -7 75 -9 94 -6 43 -15 120 -22 180 -3 25 -7 59 -10 75 -3
17 -8 45 -10 64 -2 19 -8 59 -14 88 -13 62 -23 60 -58 -9 -78 -158 -96 -226
-81 -298 4 -19 10 -53 14 -75 10 -68 12 -89 30 -360 2 -27 6 -102 10 -165 3
-63 8 -141 10 -174 4 -57 12 -255 21 -531 3 -77 7 -489 10 -916 l5 -776 -70
-37 c-210 -110 -397 -142 -513 -87 -57 27 -113 87 -141 150 -58 131 -55 364 8
594 3 9 7 25 9 35 2 9 16 53 29 97 14 44 29 104 32 133 4 29 12 81 19 115 13
62 11 91 -5 81 -5 -3 -27 -37 -50 -75 -43 -75 -61 -87 -135 -93 -166 -13 -255
188 -221 499 10 95 55 222 147 418 67 144 113 268 125 337 3 19 8 47 11 63 3
19 0 27 -11 27 -8 0 -15 -1 -15 -3 0 -4 -87 -201 -127 -287 -22 -47 -52 -116
-67 -155 -15 -38 -31 -79 -36 -90 -35 -80 -94 -307 -114 -440 -17 -111 -15
-317 3 -403 14 -69 63 -171 98 -206 61 -61 134 -74 201 -35 18 10 35 19 37 19
2 0 -5 -30 -16 -67 -11 -38 -21 -77 -23 -88 -40 -188 -50 -270 -50 -400 1
-266 71 -436 214 -526 70 -44 206 -54 320 -24 79 20 108 32 232 96 54 27 99
49 100 49 2 0 3 -136 3 -302 0 -261 7 -417 21 -439 2 -3 5 -19 8 -35 21 -119
104 -295 185 -391 173 -207 422 -304 771 -303 91 1 148 6 290 25 57 8 234 50
325 77 39 11 71 20 73 19 1 -1 16 6 32 14 16 8 32 15 35 15 9 0 25 4 50 15 41
17 211 87 237 98 33 13 34 12 42 -38 22 -139 84 -226 191 -271 85 -35 246 -13
352 48 107 62 215 164 251 236 9 17 19 32 22 32 4 0 28 -32 54 -70 77 -112
145 -156 240 -153 50 1 72 7 116 33 48 29 150 120 150 134 0 3 8 15 18 26 9
11 36 54 58 96 l42 76 35 -59 c43 -70 87 -113 147 -144 67 -34 196 -32 305 5
70 24 282 122 295 137 3 3 64 33 135 68 72 35 137 67 146 72 9 4 32 11 51 14
31 6 36 4 43 -17 4 -12 8 -25 10 -28 1 -3 6 -14 10 -25 16 -36 78 -140 87
-143 4 -2 8 -9 8 -15 0 -19 99 -106 143 -126 60 -27 103 -31 166 -13 43 13 68
29 117 77 53 52 104 133 121 190 47 166 32 288 -43 369 -31 33 -112 72 -169
82 -42 8 -145 8 -258 1 -37 -2 -70 -1 -72 2 -2 4 -6 29 -10 56 -4 28 -8 64
-11 80 -2 17 -6 50 -10 75 -3 25 -7 56 -9 70 -2 14 -6 48 -10 75 -5 46 -10 94
-19 200 -2 22 -7 72 -11 110 -8 73 -8 80 -20 262 l-7 111 53 11 c110 21 231
39 319 47 30 2 70 7 88 10 32 5 32 5 33 -38 1 -24 2 -83 4 -133 2 -49 6 -175
9 -280 3 -104 9 -242 12 -305 3 -63 7 -133 7 -155 3 -72 26 -39 63 90 8 28 17
58 19 68 2 10 6 26 9 35 3 9 7 33 10 52 3 19 8 46 11 60 7 32 14 81 20 150 3
30 7 78 10 105 2 28 7 95 10 150 5 81 10 157 14 206 1 4 54 5 119 4 158 -5
239 -13 332 -34 19 -4 44 -3 55 2 22 10 123 204 131 253 4 19 1 34 -5 39 -7 3
-53 9 -104 11 -169 8 -336 19 -447 28 -25 3 -52 5 -60 5 -11 1 -15 16 -16 64
-1 34 -5 112 -8 172 -4 61 -8 151 -11 200 -5 97 -12 197 -20 315 -3 41 -8 102
-10 135 -2 33 -7 89 -10 125 -2 36 -7 101 -10 145 -4 44 -8 105 -10 135 -3 30
-7 93 -10 140 -3 47 -8 108 -10 135 -2 28 -7 115 -10 195 -3 80 -8 156 -10
169 -2 13 -2 28 1 33 7 11 84 -67 84 -84 0 -6 17 -26 37 -45 36 -34 37 -35 45
-13 4 12 6 37 4 55 -9 72 -288 795 -306 795 -10 0 -99 -198 -107 -239 -8 -41
-8 -53 5 -111 21 -95 23 -104 28 -150 2 -25 6 -61 8 -80 7 -57 16 -243 21
-430 6 -197 13 -348 19 -400 4 -34 11 -114 21 -230 12 -143 31 -535 40 -848 4
-128 3 -161 -7 -157 -7 2 -38 6 -68 9 -30 3 -82 10 -115 15 -33 5 -78 12 -100
16 -22 3 -60 10 -85 15 -25 5 -61 12 -80 15 -51 9 -44 -33 -54 330 -3 105 -8
332 -11 505 -10 561 -14 722 -20 905 -10 283 -12 344 -19 445 -4 52 -9 137
-12 189 -3 52 -7 98 -10 103 -3 4 1 8 8 8 7 0 29 -22 48 -47 19 -26 50 -63 69
-81 32 -32 35 -33 42 -16 10 25 2 76 -21 149 -11 33 -32 96 -46 140 -14 44
-27 87 -29 95 -14 61 -97 328 -120 384 -23 58 -63 136 -68 136 -1 0 -24 -38
-50 -84z m-3556 -3158 c0 -18 2 -50 5 -70 2 -21 6 -55 8 -75 3 -21 5 -38 6
-38 1 0 3 -13 5 -30 2 -16 7 -41 11 -55 3 -14 8 -36 11 -50 9 -46 10 -49 55
-165 52 -133 147 -271 236 -343 26 -20 49 -40 52 -43 12 -15 127 -83 179 -106
93 -41 179 -67 296 -89 47 -9 96 -15 145 -19 58 -5 343 -6 395 -1 22 3 72 7
110 11 39 3 77 8 85 10 8 2 35 7 60 10 25 3 56 8 70 10 14 3 41 7 60 10 19 3
46 8 60 10 14 3 36 7 50 10 14 2 45 9 70 15 25 5 56 12 70 14 14 2 81 18 150
36 69 17 136 33 150 36 14 3 45 11 70 18 25 8 68 19 95 26 28 7 57 14 65 17 8
4 20 7 25 8 6 2 51 15 100 30 50 15 111 33 138 41 120 36 153 46 327 99 318
98 452 137 456 132 6 -6 12 -69 19 -191 3 -55 7 -117 9 -136 2 -19 7 -73 11
-120 7 -100 12 -147 20 -215 3 -27 8 -72 10 -100 6 -60 15 -130 20 -165 17
-117 17 -115 -9 -143 -14 -15 -29 -27 -35 -27 -5 0 -11 -4 -13 -9 -4 -12 -151
-95 -188 -106 -3 -1 -16 -7 -30 -12 -170 -74 -289 -114 -343 -117 -145 -8
-253 71 -309 225 l-13 37 -44 -57 c-24 -31 -63 -87 -86 -126 -24 -38 -50 -78
-59 -87 -9 -10 -16 -21 -16 -24 0 -14 -69 -76 -105 -93 -99 -48 -271 13 -296
103 -4 14 3 51 17 91 37 105 29 128 -31 97 -37 -19 -72 -54 -155 -156 -35 -44
-86 -101 -114 -128 -55 -53 -156 -108 -208 -113 -18 -2 -34 -4 -35 -5 -4 -2
-52 -3 -55 0 -2 0 -23 3 -46 5 -62 5 -147 49 -171 89 -25 39 -26 85 -6 152 20
67 19 81 -9 88 -24 6 -156 -32 -241 -70 -22 -10 -44 -18 -50 -20 -5 -1 -39
-15 -75 -31 -36 -17 -117 -47 -180 -68 -157 -53 -146 -49 -190 -58 -14 -3 -59
-13 -100 -22 -41 -9 -93 -18 -115 -20 -22 -2 -56 -7 -75 -11 -49 -9 -296 -12
-350 -3 -93 15 -116 20 -170 35 -79 23 -172 67 -233 113 -54 39 -149 140 -144
152 1 4 -5 15 -14 25 -39 47 -80 165 -94 274 -3 19 -7 44 -10 55 -5 23 -16
119 -21 185 -2 25 -6 142 -10 260 l-6 216 43 29 c24 17 53 38 64 47 11 9 55
43 98 76 253 193 435 411 492 590 22 69 35 79 36 30z m4231 -1833 c64 -31 129
-90 122 -110 -6 -16 -9 -16 -59 -19 -64 -4 -173 63 -219 135 l-16 26 59 -3
c37 -3 80 -13 113 -29z"/>
<path d="M1984 2533 c-59 -29 -105 -142 -120 -298 -4 -33 -8 -67 -9 -75 -2 -8
-4 -24 -4 -35 -1 -11 -12 6 -25 37 -67 162 -192 299 -259 283 -29 -8 -67 -70
-71 -120 -3 -30 1 -39 28 -59 17 -13 57 -32 88 -42 65 -20 97 -44 125 -94 17
-31 50 -118 57 -153 2 -7 6 -21 10 -32 5 -11 12 -32 18 -47 16 -42 35 -42 49
0 7 20 14 44 15 52 7 42 16 109 20 140 8 65 14 102 20 111 3 5 0 9 -6 9 -6 0
-8 5 -5 10 4 6 8 22 11 36 11 58 40 128 60 141 18 12 26 10 64 -16 50 -33 74
-29 91 16 7 20 5 35 -11 67 -34 69 -91 96 -146 69z"/>
<path d="M5062 2318 c-22 -27 -92 -175 -98 -205 -10 -55 2 -77 55 -107 28 -15
53 -27 56 -27 2 0 47 -21 98 -48 l93 -49 39 56 c92 130 104 186 52 236 -33 31
-132 86 -154 86 -6 0 -13 3 -15 8 -3 7 -101 62 -111 62 -2 0 -9 -6 -15 -12z"/>
<path d="M4630 2254 c-25 -13 -65 -31 -90 -40 -25 -9 -67 -24 -95 -35 -27 -10
-131 -46 -230 -79 -99 -34 -189 -65 -200 -70 -11 -5 -50 -20 -86 -34 -102 -37
-231 -104 -266 -139 -43 -40 -45 -77 -5 -77 36 0 135 34 274 94 59 25 110 46
114 46 4 0 28 10 53 21 25 12 55 25 66 29 38 15 60 23 65 24 64 15 286 98 359
134 56 28 121 95 121 125 0 33 -17 33 -80 1z"/>
<path d="M2994 2068 c-115 -43 -274 -98 -314 -110 -19 -5 -48 -16 -65 -23 -16
-7 -70 -27 -120 -44 -49 -16 -155 -53 -235 -81 -80 -29 -161 -56 -180 -62 -19
-6 -39 -13 -45 -16 -5 -4 -12 -7 -15 -7 -17 -2 -151 -51 -182 -66 -21 -11 -44
-32 -52 -47 -23 -45 -1 -104 28 -74 4 4 11 7 14 7 14 1 494 167 537 185 11 5
73 27 138 50 64 22 168 58 230 79 61 22 158 54 214 72 123 39 174 76 176 129
2 31 -1 35 -24 36 -15 1 -62 -12 -105 -28z"/>
<path d="M4607 5985 c-62 -46 -145 -97 -330 -201 -84 -48 -168 -95 -187 -106
-19 -11 -61 -38 -94 -59 -32 -21 -60 -39 -63 -39 -2 0 -9 -5 -16 -10 -7 -6
-37 -29 -67 -53 -108 -83 -164 -153 -181 -224 -8 -39 -1 -41 33 -10 50 45 244
168 423 267 33 18 71 39 85 47 176 97 372 244 418 313 28 41 49 110 34 110 -4
0 -28 -16 -55 -35z"/>
<path d="M880 5323 c-26 -10 -51 -37 -71 -74 -18 -37 -23 -54 -38 -139 -4 -25
-8 -48 -9 -52 -1 -5 -2 -20 -2 -34 0 -14 -4 -23 -10 -19 -11 7 -49 76 -47 85
3 10 -67 106 -96 132 -31 29 -75 43 -104 34 -10 -3 -26 -27 -35 -53 l-17 -47
50 -48 c45 -44 64 -52 109 -49 9 0 26 -24 44 -67 16 -37 41 -94 56 -126 l27
-59 -42 -41 c-23 -23 -45 -53 -49 -69 -6 -26 -5 -27 21 -21 69 15 83 15 103 1
21 -15 20 -16 -32 -31 -29 -9 -62 -24 -73 -34 -79 -68 -89 -193 -29 -377 14
-44 27 -87 29 -95 12 -49 47 -208 50 -225 1 -11 5 -39 9 -62 15 -91 29 -233
29 -285 1 -45 15 -32 24 20 10 61 10 270 0 347 -10 70 -40 183 -92 345 -41
127 -48 199 -22 224 29 29 84 46 159 48 79 1 91 6 111 48 21 41 2 76 -72 133
-33 27 -66 57 -71 67 -11 20 -6 81 15 200 1 8 6 38 10 67 11 80 30 138 49 141
9 2 28 -6 43 -18 l28 -21 17 21 c30 37 19 86 -26 122 -23 19 -24 19 -46 11z"/>
<path d="M4274 5104 c-33 -70 -20 -164 42 -301 13 -28 24 -58 24 -67 0 -20
-48 -25 -82 -9 -52 25 -75 78 -99 233 -11 70 -35 150 -46 150 -8 0 -30 -25
-43 -50 -15 -28 -14 -83 2 -150 18 -72 18 -142 0 -172 -18 -31 -80 -68 -114
-68 -51 0 -66 37 -72 175 -3 86 -24 165 -44 165 -21 0 -35 -89 -33 -215 1
-107 5 -137 22 -171 27 -57 50 -75 96 -76 67 -1 124 38 172 116 13 20 27 34
32 30 5 -3 7 -10 4 -15 -4 -5 -1 -9 4 -9 6 0 11 -5 11 -10 0 -31 64 -70 112
-70 120 0 177 176 116 355 -17 51 -71 180 -79 189 -4 4 -15 -9 -25 -30z"/>
<path d="M6993 4578 c-69 -138 -122 -281 -148 -403 -4 -17 -9 -73 -12 -126
-10 -177 45 -288 144 -289 24 0 41 9 64 32 48 51 60 88 73 230 5 57 -18 82
-26 28 -8 -52 -46 -99 -81 -100 -32 0 -75 56 -84 108 -4 26 -7 54 -7 62 4 61
32 177 59 235 52 115 94 305 67 305 -4 0 -27 -37 -49 -82z"/>
<path d="M1427 4393 c-6 -12 -17 -60 -23 -105 -6 -38 10 -98 26 -98 4 0 33
-39 64 -86 116 -179 161 -363 165 -668 1 -46 11 -56 18 -18 19 98 24 375 9
476 -20 134 -99 314 -195 443 -45 61 -56 70 -64 56z"/>
<path d="M2993 4278 c-13 -16 -55 -108 -83 -178 -72 -184 -68 -355 11 -395 65
-34 102 -4 144 118 16 45 30 88 33 95 3 7 -5 12 -21 12 -20 0 -31 -10 -48 -40
-13 -22 -28 -39 -33 -37 -23 8 -49 70 -49 116 1 57 4 71 47 201 19 57 32 108
30 112 -7 12 -20 10 -31 -4z"/>
<path d="M5288 4268 c-98 -150 -145 -398 -92 -488 30 -51 61 -64 95 -39 32 22
49 67 54 139 3 52 -8 60 -20 13 -12 -50 -55 -58 -82 -17 -25 39 -21 126 10
205 41 102 59 165 55 190 l-3 23 -17 -26z"/>
<path d="M6960 2550 c0 -10 -61 -142 -70 -150 -3 -3 -11 -16 -17 -30 -7 -14
-25 -47 -40 -75 -40 -70 -56 -121 -55 -173 2 -93 66 -162 121 -131 34 19 73
92 77 140 1 22 0 39 -4 39 -3 0 -19 -15 -34 -32 l-28 -33 -22 23 c-17 16 -23
35 -24 75 -2 48 4 67 62 182 64 127 78 175 49 175 -8 0 -15 -4 -15 -10z"/>
<path d="M827 1988 c-56 -112 -80 -199 -81 -293 -2 -139 29 -215 88 -215 34 0
91 74 102 133 1 4 2 8 4 10 7 8 9 67 2 67 -5 0 -21 -17 -35 -38 -30 -46 -53
-49 -77 -10 -32 53 -17 203 30 303 12 27 40 113 40 125 0 6 -6 10 -14 10 -7 0
-34 -42 -59 -92z"/>
<path d="M5607 1139 c-64 -33 -117 -106 -157 -216 -13 -35 -53 -79 -120 -133
-24 -19 -51 -43 -62 -52 -10 -10 -20 -18 -23 -18 -3 0 -27 -16 -54 -35 -134
-96 -333 -196 -701 -348 -113 -47 -235 -99 -270 -115 -36 -16 -84 -37 -107
-47 -24 -10 -43 -22 -43 -26 0 -13 88 -22 148 -15 126 15 338 80 471 145 25
11 50 21 57 21 7 0 14 3 16 8 2 4 48 30 102 57 102 51 344 207 406 260 93 81
199 199 200 221 0 5 7 17 14 27 13 17 16 17 72 -2 33 -11 75 -26 94 -34 38
-15 44 -15 76 -4 79 27 62 285 -21 317 -32 12 -58 9 -98 -11z m58 -125 c14 -9
25 -23 25 -30 0 -17 1 -17 -41 -3 -48 17 -64 30 -47 40 19 13 36 11 63 -7z"/>
<path d="M2121 773 c-104 -209 -123 -395 -47 -480 52 -60 114 3 129 130 5 42
-7 59 -18 24 -4 -12 -7 -25 -6 -30 1 -4 -11 -12 -25 -17 -22 -9 -29 -7 -45 11
-23 26 -21 21 -24 84 -1 28 2 61 7 75 6 14 11 32 13 40 2 8 14 44 28 80 28 74
40 140 27 140 -6 0 -23 -26 -39 -57z"/>
<path d="M4211 807 c-17 -45 -19 -85 -5 -106 13 -17 12 -20 -4 -25 -10 -3 -38
0 -62 7 -41 12 -45 16 -48 47 -5 54 -17 55 -48 6 -16 -25 -32 -46 -36 -46 -5
0 -8 -6 -9 -12 -1 -21 -73 -76 -105 -82 -19 -4 -64 6 -129 28 -121 42 -192 42
-306 1 -41 -14 -78 -27 -84 -29 -19 -4 -304 -165 -385 -217 -8 -5 -26 -14 -40
-20 -14 -5 -47 -21 -75 -33 -67 -31 -191 -70 -260 -82 -16 -3 -48 -10 -70 -16
-22 -6 -45 -12 -50 -13 -47 -10 -125 -41 -129 -52 -3 -7 3 -17 14 -23 29 -16
235 -4 326 19 84 21 232 76 249 92 5 5 14 9 20 9 6 0 63 28 126 61 204 110
350 182 355 176 3 -3 1 -13 -5 -24 -21 -38 -84 -179 -92 -208 -28 -90 -10
-213 33 -236 37 -20 82 5 124 66 15 23 29 95 18 95 -4 0 -22 -11 -41 -26 -18
-14 -38 -22 -43 -19 -16 10 -40 74 -40 105 0 29 37 158 50 175 4 6 10 22 14
36 7 32 69 67 113 64 53 -4 108 -18 163 -42 107 -47 144 -40 234 49 39 39 60
43 104 19 86 -46 177 36 190 169 7 80 -45 147 -67 87z"/>
</g>
</svg>
