<svg xmlns="http://www.w3.org/2000/svg" xmlns:xlink="http://www.w3.org/1999/xlink" width="360px" height="358px" viewBox="0 0 360 358"><title>LogoSVG</title><defs><polygon id="path-1" points="0 0 360 0 360 284.342752 0 284.342752"></polygon><polygon id="path-3" points="0 0 155.747607 0 155.747607 224.679616 0 224.679616"></polygon></defs><g id="Dark-Mode" stroke="none" stroke-width="1" fill="none" fill-rule="evenodd"><g id="Icon-Masajd" transform="translate(-76.000000, -77.000000)"><g id="Logo" transform="translate(76.000000, 77.000000)"><path d="M210.881803,317.670041 C210.059129,320.335555 208.79047,322.710641 211.093246,325.101763 C208.89175,325.944536 206.764881,325.02693 204.826356,324.171685 C204.126284,323.401964 204.813919,320.791685 203.838437,319.610378 C192.464931,338.333115 192.829181,324.130704 177.360075,326.384631 C165.160341,328.895131 155.625856,337.75048 144.355406,342.45789 C136.237056,346.707389 126.54088,346.78935 118.433192,350.429486 C117.907249,350.882053 117.981876,352.017034 118.848971,352.070487 C139.604155,354.866069 155.389537,341.618681 173.225385,333.616796 C170.521045,341.189277 164.524235,347.984911 168.317773,355.888799 C171.466321,362.140996 177.944653,352.865152 176.933635,349.244615 C175.48907,350.06957 174.227519,351.152881 172.91977,352.175611 C167.868234,347.45751 172.089989,340.293052 174.06405,335.02795 C177.049129,330.760634 184.348358,333.351314 188.376438,335.22038 C198.051293,339.883247 198.545253,328.640339 203.15791,330.86754 C214.083655,337.627538 216.901712,315.788502 210.881803,317.670041" id="Fill-1" fill="#263238"></path><path d="M234.110516,53.189108 C238.819123,54.311617 240.592402,44.5546977 243.684091,41.5292687 C247.148915,43.266485 258.47267,52.3819706 261.157465,48.8398312 C265.006085,39.2165439 271.962385,37.2138453 259.027042,32.2249165 C255.908701,31.5407206 250.773654,25.4916444 248.490424,29.4150806 C246.118352,32.0823757 245.700796,40.9395061 241.271152,39.3501759 C236.925019,38.4699863 227.34789,29.7268886 224.337935,33.9656963 C214.094494,50.0478647 221.663802,45.6273174 234.110516,53.189108" id="Fill-3" fill="#263238"></path><path d="M284.346199,310.566163 C282.796801,310.024508 281.247403,309.482853 279.699781,308.942979 C279.651807,308.718478 279.605609,308.495758 279.557635,308.273038 C281.952805,306.571457 283.233902,308.066353 284.89524,309.782189 C284.712227,310.044107 284.529213,310.304244 284.346199,310.566163 M273.027774,311.473079 C272.725712,312.916305 271.938575,314.400511 270.986193,315.540838 C252.317011,333.828825 225.74803,340.387485 202.812672,351.64821 C218.654913,357.351625 269.722865,330.144145 274.600271,314.281133 C277.995798,315.480258 281.15323,316.549314 284.273349,317.714585 C290.170657,318.170716 289.538104,308.567028 288.011805,304.898384 C284.500783,295.60294 274.292879,305.47211 273.027774,311.473079" id="Fill-5" fill="#263238"></path><path d="M130.627951,27.7589344 C137.866767,23.2368268 139.325547,27.7375532 137.324833,34.5973303 C137.017441,34.8164869 136.708272,35.0374251 136.40088,35.2583634 C134.702228,32.8298241 131.073936,30.6881483 130.627951,27.7589344 M76.1182737,88.8750939 C76.2728582,89.1031592 76.4292195,89.3312246 76.5838039,89.5592899 C99.0234255,77.4165935 122.219978,65.1420469 137.331941,43.6807443 C144.51923,47.0785611 138.662789,57.0671093 139.794631,63.4778828 C142.452773,73.1403688 151.738501,61.8600445 150.15179,55.3940364 C142.790371,67.4547718 144.099897,52.1351968 144.826622,46.6937009 C145.032734,43.5257311 144.576088,40.560882 141.74737,38.5385841 C139.213607,35.573735 143.945313,30.645386 143.440692,26.9304158 C143.708994,22.3031844 141.400888,16.3307239 135.372094,19.0675077 C127.008542,22.4688881 123.461984,34.9928811 132.756596,39.5238975 C137.221777,49.3788137 84.1442275,79.8700774 76.1182737,88.8750939" id="Fill-7" fill="#263238"></path><path d="M206.17746,123.493449 C209.350884,133.066847 219.247842,130.638308 220.072293,121.294757 C220.854099,114.336983 217.570512,108.072314 214.802207,101.69183 C210.322811,108.505282 213.995525,114.431416 216.751392,120.815463 C217.447911,122.427956 217.055231,123.031973 215.379677,123.156696 C205.982009,122.909032 210.193102,108.961412 205.409868,103.370248 C198.432246,109.731133 208.611721,117.64393 202.321733,123.791003 C190.052702,131.54166 197.231107,112.760125 192.110275,108.28078 C189.13408,112.671037 190.832732,116.719196 190.518233,121.460461 C189.683121,134.898497 201.522158,134.673995 206.17746,123.493449" id="Fill-9" fill="#263238"></path><path d="M355.605901,154.844412 L354.689055,154.976262 C354.026297,161.085918 350.271849,164.597768 346.520955,158.028418 C343.281789,146.757002 352.940652,136.914558 352.67235,125.967423 C352.396941,125.949606 352.119755,125.931788 351.844346,125.915752 C325.433503,173.643765 357.835826,184.029646 355.605901,154.844412" id="Fill-11" fill="#263238"></path><path d="M150.158541,144.251491 C146.292153,150.642665 139.525974,166.27583 144.710772,172.889724 C151.613768,178.904947 153.150728,167.255798 155.046609,162.706964 C152.3476,161.48824 152.130826,163.640606 151.352573,164.884275 C150.824854,165.730611 150.240276,167.152456 149.225704,166.047764 C143.968056,159.982652 150.526346,151.672522 151.283277,144.814527 C150.908365,144.627442 150.533453,144.438576 150.158541,144.251491" id="Fill-13" fill="#263238"></path><path d="M41.3550729,276.978734 C38.4748269,269.946127 43.32025,262.190124 45.1432804,255.310748 C44.7790297,255.118318 44.4165558,254.925887 44.0523051,254.735239 C38.9705633,262.416408 34.7186023,273.835709 38.6027589,282.835381 C43.043064,289.625669 47.4958071,279.013505 47.5437816,274.801423 C47.220398,274.6767 46.8987912,274.553759 46.5754077,274.429035 C45.6283558,276.586747 43.2829365,280.435349 41.3550729,276.978734" id="Fill-15" fill="#263238"></path><path d="M347.587588,232.4823 C345.11779,240.694433 334.558073,250.196561 340.776987,258.585089 C345.65617,263.114323 349.25781,254.877245 348.939757,250.695454 C348.682117,250.624184 348.424476,250.551131 348.165058,250.479861 C347.390359,251.730657 346.340251,252.735569 345.277705,253.738701 C338.022897,246.811217 349.909908,238.232041 349.670036,230.83239 C348.717653,231.092527 347.893203,231.457788 347.587588,232.4823" id="Fill-17" fill="#263238"></path><path d="M92.6643185,265.731016 C96.9002879,261.809362 93.8938868,230.523433 103.490561,240.832698 C103.892125,241.238939 105.12347,241.399298 105.558794,241.091053 C109.220847,238.325761 106.315725,233.869579 103.117426,232.173343 C94.1106604,228.818288 92.9024141,247.991811 92.5026267,254.13532 C90.3650969,246.046129 77.3035989,225.865912 74.5512849,243.904453 C75.4361476,246.185106 79.5477387,247.701384 81.6977064,248.036355 C88.8281365,250.0052 88.705535,260.073927 91.8789584,265.759524 C92.1419297,265.748834 92.4031241,265.739925 92.6643185,265.731016" id="Fill-19" fill="#263238"></path><path d="M263.161377,264.994258 C275.487266,248.755295 268.367497,251.123255 254.765842,242.827379 C253.452762,242.098639 252.996116,243.018027 252.546578,243.960578 C242.944573,261.090422 249.29675,256.071203 263.161377,264.994258" id="Fill-21" fill="#263238"></path><path d="M203.295082,262.693293 C210.882158,258.103479 233.632725,254.516795 235.596126,246.607561 C235.917732,245.198189 235.274519,244.562101 233.79264,245.192844 C224.739677,250.978219 181.447146,261.073673 181.324544,268.892037 C181.448923,273.387418 199.631253,263.142297 203.295082,262.693293" id="Fill-23" fill="#263238"></path><path d="M142.32413,258.239249 C126.117638,263.90881 109.904039,269.564117 93.69577,275.230115 C89.4598006,276.710758 88.0774246,278.893414 89.0813352,282.633329 C108.92145,276.017653 128.779334,268.4131 148.813124,261.936401 C152.965582,260.742622 157.580017,258.510076 156.15322,254.107347 C151.535232,253.90779 146.84617,257.113176 142.32413,258.239249" id="Fill-25" fill="#263238"></path><g id="Group-29" transform="translate(0.000000, 30.901247)"><mask id="mask-2" fill="white"><use xlink:href="#path-1"></use></mask><g id="Clip-28"></g><path d="M288.003099,241.711819 C281.224481,248.56625 269.833206,251.73422 260.805119,255.607767 C251.201337,258.729411 241.970691,253.001052 240.60786,243.240569 C232.009766,250.490552 229.856245,268.846246 214.573706,262.059521 C204.406669,257.526723 214.111729,250.91461 211.508669,247.196077 C201.933317,248.62683 198.104243,270.711749 178.667469,268.019509 C152.809221,262.659974 191.702314,239.947876 149.026344,258.340987 C123.482595,269.076093 77.2174225,275.830746 68.4256538,240.78174 C65.81904,227.612749 65.4459051,213.182273 65.4299137,200.955834 C80.7586503,189.410027 97.1783623,178.23839 101.833664,158.637245 C104.445608,255.63093 222.789781,205.688189 283.113255,188.889753 C284.117165,206.563033 285.613258,224.186424 288.003099,241.711819 M320.016295,259.201578 C316.542587,262.618994 308.358495,258.451456 305.042925,252.525322 C309.815498,251.219291 317.64067,254.672343 320.016295,259.201578 M358.307042,168.980364 C348.161327,168.554523 338.223501,167.998614 328.29989,167.102388 C327.237344,134.047172 323.543308,101.692187 322.153825,68.4926471 C326.215665,70.9229682 326.450207,74.9764728 330.389445,77.0397512 C331.492858,74.0267946 330.545806,71.5679654 329.698257,69.2552405 C324.959444,57.1000719 321.217434,44.9680661 315.458719,33.1835036 C313.626804,37.759064 307.843214,46.3026045 310.439166,50.6679172 C314.188284,68.0258259 312.457648,86.303123 314.264687,104.090436 C316.107263,123.315629 316.922829,144.57203 317.546498,165.970971 C309.174061,164.969621 300.753651,163.640428 292.191093,161.846196 C290.76252,120.561028 291.418171,78.9640523 288.294499,37.9853475 C288.493504,37.9283312 288.69251,37.8730966 288.891515,37.8160803 C291.370197,40.5813723 293.159467,44.1324205 296.345329,46.120865 C297.96047,41.6718096 294.666222,37.119412 293.855986,32.6953012 C289.950507,21.9209968 288.143468,9.87095198 282.482479,0 C279.063853,5.68916059 274.056738,11.952048 277.102229,18.8403333 C281.075227,65.4298012 280.382263,112.603687 281.844596,159.570888 C263.861271,155.310699 246.236867,147.978755 227.976356,146.314591 C214.783372,148.15515 209.932619,147.146673 205.184921,161.211889 C203.107804,166.245362 209.996585,164.271171 212.718692,164.727302 C220.64159,164.433311 232.489511,171.232509 238.68355,165.361609 C239.961093,164.05736 240.494143,164.388767 241.720158,164.761155 C254.884712,168.958983 268.429508,171.733183 281.711334,175.492698 C236.446518,188.590417 143.292504,231.053329 112.700774,174.151032 C107.404035,160.614999 109.424294,146.082962 108.061463,131.994584 C104.699696,108.291827 100.769341,83.3774726 87.7060666,62.9175192 C82.7327115,71.5590566 83.4843118,80.8812264 86.7376927,89.9307869 C91.4676216,109.886502 96.9953485,129.724621 99.5699792,150.077669 C98.7455288,165.17096 76.4835906,177.828585 65.2646682,187.067012 C64.3780286,132.967425 67.8179769,77.3747222 58.4949352,24.42437 C55.3499411,26.8831992 54.9803599,31.433815 52.9476632,34.7585797 C50.0976233,39.8080883 53.1733209,44.8504699 53.2266259,50.1244804 C57.0716921,97.5478121 57.2138387,144.994307 56.9153308,192.494254 C22.6899773,212.401862 10.6163983,191.006484 23.9728506,152.450974 C24.4952394,151.30352 24.8328376,148.657606 24.9092415,146.139979 C25.4014241,144.331492 25.8314177,142.367992 26.1814537,140.233443 C26.5563655,136.612906 25.3907631,138.089986 23.9817347,140.46329 C23.8626869,140.457945 23.7365318,140.495362 23.5926083,140.637903 C23.4806679,140.996037 23.3758347,141.341698 23.2656711,141.696268 C21.9543685,144.001866 20.6164134,146.473168 20.2077418,146.029509 C1.46037889,152.572133 3.61567708,120.940543 6.76777848,115.051825 C9.43125086,104.655254 18.2940929,92.6497531 19.3779609,80.1542682 C18.494875,76.223705 14.9110032,88.0029223 14.669354,87.7267494 C-13.5645193,143.552863 5.39428672,171.154111 18.2088049,158.95618 C6.26138113,195.145514 14.5556367,233.305474 56.8140514,207.234757 C56.7802915,211.694503 56.7465317,216.152467 56.7145487,220.612213 C51.6434679,291.020253 110.612995,290.296858 159.849032,267.107248 C161.622311,294.444796 192.427262,285.331092 201.192378,266.914818 C212.009736,288.58815 227.070171,277.746139 234.962862,260.268852 C247.231893,287.412188 274.060292,259.789558 292.073823,255.367229 C309.534759,299.079155 336.682987,257.628283 324.087019,242.766621 C317.303072,235.762521 307.363469,238.31222 298.708516,238.415562 C296.021945,221.168123 294.392589,203.756761 293.335374,186.258093 C293.951935,186.115552 294.572049,185.97123 295.169065,185.841161 C302.13958,184.41219 309.971859,183.280772 318.012028,182.687446 C318.461567,199.156256 318.927097,215.418382 319.792414,230.60967 L320.458727,230.533055 C326.624336,216.268282 326.857102,198.270721 327.900102,182.247351 C334.657398,182.154699 341.379156,182.505706 347.685136,183.450039 C349.799567,183.528436 352.654937,185.265653 354.271855,183.393023 C354.913292,180.102111 363.578905,169.593289 358.307042,168.980364" id="Fill-27" fill="#263238" mask="url(#mask-2)"></path></g><g id="Group-32" transform="translate(116.164694, -0.000000)"><mask id="mask-4" fill="white"><use xlink:href="#path-3"></use></mask><g id="Clip-31"></g><path d="M93.9633758,11.3127524 C95.5945083,9.59513549 97.0444039,9.50248396 99.5230856,10.7461526 C99.7025457,13.1230209 99.8713449,15.3662571 100.040144,17.611275 C99.8038252,17.7128354 99.5657296,17.8161774 99.327634,17.9177378 C97.7409223,15.8491141 92.7622368,14.3203638 93.9633758,11.3127524 M136.440341,95.9624018 C133.156754,95.0679582 117.923966,98.5495178 120.466614,92.7089075 C125.040182,85.5515765 132.40693,91.3440792 136.833021,95.6131768 C136.701535,95.7289912 136.571827,95.8465874 136.440341,95.9624018 M20.8093922,96.6608519 C29.462568,91.880389 24.6597889,101.810139 29.8179346,102.287651 C32.342814,101.334409 32.3481445,97.818996 33.0340019,95.5615058 C36.370894,89.635371 34.8126116,77.7831016 25.8467132,81.6281403 C13.2276466,87.3119556 7.11001127,100.078268 1.79195067,112.04457 C-1.56270967,119.055797 7.6750441,121.218854 11.6818021,124.956987 C9.3754731,126.916923 6.0989934,128.203354 4.39678757,130.79047 C3.2987049,134.929499 -0.915942526,139.432008 0.180363317,143.628053 C4.06985033,143.448095 7.25748839,138.879662 10.8182613,137.188771 C15.5997184,134.083163 29.4288082,125.765906 29.558517,125.919138 C18.4995096,141.778586 6.00837493,157.686142 3.85840723,177.609785 C0.178586484,193.998416 12.5026988,217.663756 31.7404677,209.813321 C42.1100639,205.296558 48.8229383,195.66258 57.0709962,188.230858 C57.0390132,200.361082 56.2341079,210.518898 54.9299126,223.442005 C59.9761178,231.296004 64.4288608,200.011857 66.0671007,179.145663 C105.852164,143.73674 161.214721,160.741861 155.312082,106.572784 C139.011418,34.6092681 85.2000364,102.839997 121.646431,111.46728 C153.828427,112.696694 162.469165,124.244283 127.046226,135.854233 C95.4186018,144.33363 78.6381928,154.942231 66.7316362,165.128554 C66.7138678,163.441227 66.6179189,162.30981 66.4331282,161.921386 C64.3400192,126.888415 62.4032714,92.1066726 59.9619032,57.2002068 C74.7327143,48.9773831 89.380924,40.5068947 98.8674343,25.9303138 C101.410082,27.786908 104.078885,29.734372 106.861405,31.7655787 C111.804554,22.8995395 103.874549,23.6585694 102.868862,18.607279 C108.890548,1.52910668 97.4051009,-1.20055008 89.9512873,13.924813 C87.6111985,18.6019337 94.5141939,21.238939 97.1083698,24.1699346 C86.6303868,36.3019404 73.0749293,44.9292237 59.7095929,53.720429 C59.2334017,47.0031927 58.773202,40.2895199 58.2508132,33.5598113 L58.9739841,33.2978926 C62.163399,35.1705226 63.3680916,39.2222455 66.7067605,40.6690349 C68.6968132,37.3959412 52.9842807,-5.22911009 50.356345,0.534884438 C47.4050257,8.49044411 44.4075087,13.7020929 48.4426961,21.848301 C49.1818585,34.5647241 49.8481708,47.2455121 50.4931611,59.9102642 C48.7447576,61.1200794 47.008792,62.342367 45.3030325,63.5967262 C44.4732516,64.1900524 43.2738894,64.7762515 44.1303228,66.2996566 C46.2607454,64.9775905 48.4320351,63.7036318 50.6228699,62.4457091 C52.3570587,96.6287802 53.9508778,130.690692 56.3371642,164.936124 C56.5343927,168.276925 56.6854235,171.396787 56.8026944,174.366981 C46.7866879,184.218334 38.6363558,192.815327 21.8523931,197.465722 C-10.0257643,193.369455 20.2674582,144.599112 30.6370545,131.041698 C33.7802717,123.141373 40.780993,121.519971 45.66906,115.898518 C47.0745348,111.645456 50.6619602,107.52959 50.5784491,103.123296 C41.7849035,106.628019 33.2898659,116.703873 23.2809667,112.573753 C8.99700771,106.394608 6.22692536,105.391477 20.8093922,96.6608519" id="Fill-30" fill="#263238" mask="url(#mask-4)"></path></g><path d="M81.4493052,47.1476934 C89.3526575,49.328568 89.2158414,60.4912962 92.7339704,66.7916006 L93.6046184,66.7613107 C98.2990107,62.4173791 94.9674492,27.7336334 105.605347,39.1618438 C106.051332,39.6126292 107.41594,39.7908052 107.897462,39.4487073 C111.957525,36.3840796 108.736127,31.4450401 105.191345,29.5635012 C95.2073216,25.8431857 93.8693665,47.0978042 93.4251583,53.907692 C91.0566402,44.9418742 76.5790065,22.5718738 73.5281845,42.5685695 C74.5072194,45.0933238 79.0665724,46.7770873 81.4493052,47.1476934" id="Fill-33" fill="#263238"></path><path d="M265.001642,144.356615 C248.942628,171.972117 267.952962,182.181604 267.354169,162.453954 C267.164048,162.48068 266.97215,162.509189 266.782029,162.535915 C266.463976,166.300774 263.864469,168.506594 261.671858,164.445962 C259.642715,157.413354 265.685723,151.239555 265.520478,144.388686 C265.346348,144.377996 265.173995,144.367305 265.001642,144.356615" id="Fill-35" fill="#263238"></path><path d="M25.6553336,104.198411 C27.3699772,105.504441 28.4751672,107.161478 31.060459,105.657672 C33.0416275,110.135236 34.949946,114.445314 36.8440497,118.726884 C34.8255677,120.551406 31.7178871,122.728718 32.2384991,125.545681 C35.2768832,124.838322 37.1354503,122.944311 39.6141321,126.121189 C26.9861813,127.045923 28.9495816,140.539193 32.4463885,149.136187 C35.6055973,159.924745 37.2047468,170.93246 37.8337456,182.041736 C38.0291972,182.054208 38.2246488,182.068462 38.4201004,182.080934 C44.8717804,147.778485 18.2601554,131.259786 42.9403631,131.295421 C43.9673725,131.186734 45.2573531,131.845985 45.7939566,130.621916 C46.5189044,128.968442 48.1731357,127.133229 46.4229554,125.35325 C44.3138549,122.587958 39.8788802,121.075244 38.9105063,117.679209 C39.8326825,112.159316 40.475896,106.539644 41.5864165,101.073203 C43.1180464,94.0887027 46.0071765,102.732022 47.8604132,99.5854332 C49.4471249,96.4905156 47.7644642,93.8250022 44.9446305,92.5100631 C38.764806,93.6521714 38.6048911,104.175248 37.8035395,109.557946 C34.4844158,104.574362 31.6805736,94.4201101 24.4826239,96.3176848 C22.5192236,100.47275 21.7747307,101.085675 25.6553336,104.198411" id="Fill-37" fill="#263238"></path><path d="M83.0512977,189.709719 C84.014341,189.458491 84.4372273,184.715445 84.5100774,184.066884 C85.4660134,175.405748 85.3505193,166.593161 82.8363009,158.192162 C80.6898869,151.025922 76.8075072,144.618712 72.0473721,138.902825 C71.3597378,138.07787 70.6312363,141.669898 70.5619399,142.003088 C70.3149601,143.824047 69.6557551,146.058374 70.2083501,147.820535 C81.8483819,161.290643 82.8078716,173.579443 83.0512977,189.709719" id="Fill-39" fill="#263238"></path><path d="M109.58261,335.320337 C109.264557,339.083415 106.66505,341.291016 104.472439,337.230384 C102.443296,330.197776 108.486304,324.022195 108.321058,317.173108 L107.802223,317.141037 C91.7432084,344.756539 110.753543,354.966026 110.156527,335.238376 C109.964629,335.265102 109.774508,335.293611 109.58261,335.320337" id="Fill-41" fill="#263238"></path><path d="M233.142497,57.5581624 C222.691167,67.5680917 181.587693,82.7985787 183.353865,96.5502045 C192.954093,85.8115353 236.23774,69.7846015 233.142497,57.5581624" id="Fill-43" fill="#263238"></path></g></g></g></svg>